<svg version="1.1" id="Layer_1" xmlns="http://www.w3.org/2000/svg" xmlns:xlink="http://www.w3.org/1999/xlink" x="0px" y="0px"
	 width="100%" viewBox="0 0 1080 1080" enable-background="new 0 0 1080 1080" xml:space="preserve">
<path fill="#FFFFFF" opacity="1.000000" stroke="none" 
	d="
M479.000000,1081.000000 
	C319.351715,1081.000000 160.203400,1081.000000 1.027550,1081.000000 
	C1.027550,721.059937 1.027550,361.119812 1.027550,1.089864 
	C360.898529,1.089864 720.797119,1.089864 1080.847900,1.089864 
	C1080.847900,360.999939 1080.847900,720.999939 1080.847900,1081.000000 
	C880.452698,1081.000000 679.976379,1081.000000 479.000000,1081.000000 
M1014.365906,464.218719 
	C1009.641663,468.137207 1005.371948,473.316345 998.809937,469.910797 
	C1006.942566,467.606537 1008.769348,465.548889 1008.378845,458.620972 
	C1003.668884,462.555084 999.274353,467.043304 992.603699,463.481934 
	C992.603699,447.597321 992.603699,431.712708 992.603699,415.941895 
	C993.251099,415.724884 993.565369,415.525757 993.877869,415.528717 
	C999.039917,415.577209 1004.201599,415.654053 1009.363525,415.718414 
	C1014.517395,415.782684 1015.026672,415.128082 1014.153381,409.594116 
	C1012.195251,409.359680 1010.237183,409.125214 1008.492859,408.055817 
	C1008.695496,406.633118 1008.898132,405.210419 1009.071960,403.989563 
	C1003.489441,403.989563 998.248474,403.989563 992.685059,403.115295 
	C992.937073,398.424133 993.189087,393.733002 993.446106,388.949493 
	C991.375427,388.586060 989.309814,388.223480 987.296509,387.117371 
	C987.512085,385.744720 987.727661,384.372070 987.933899,383.058685 
	C983.005981,383.058685 978.576233,383.058685 974.202698,383.058685 
	C974.613403,390.146606 975.011169,397.010925 975.407349,403.848297 
	C970.463318,404.131470 965.807312,405.666107 962.185730,404.351349 
	C953.671143,401.260132 946.997742,404.303009 940.197144,408.488800 
	C938.532532,409.513367 936.717224,410.293121 934.182617,411.588379 
	C934.496216,408.440704 934.684875,406.547241 934.887146,404.517181 
	C930.095886,404.517181 925.582825,404.517181 921.692688,404.517181 
	C921.692688,426.215637 921.692688,447.557007 921.692688,469.102112 
	C923.288879,469.102112 925.111084,469.102112 927.116516,469.866089 
	C926.992432,471.454742 926.868347,473.043396 926.746521,474.602692 
	C931.585999,474.602692 936.128113,474.602692 939.483459,474.602692 
	C939.483459,459.287689 939.406128,444.364929 939.578918,429.445068 
	C939.601135,427.528229 940.381775,425.001068 941.737915,423.829620 
	C946.691772,419.550507 952.181641,416.088593 959.805664,416.845795 
	C960.193970,416.826080 960.582336,416.806335 961.182251,417.452545 
	C962.695618,419.147644 964.208984,420.842712 966.162598,423.030884 
	C967.330444,418.611511 968.402100,414.556274 969.717041,409.580505 
	C970.135559,412.063721 970.399414,413.629303 970.697693,415.399323 
	C972.263611,415.564331 973.710571,415.716797 975.293884,416.814667 
	C975.300964,428.086823 975.324829,439.359039 975.309265,450.631165 
	C975.298828,458.148193 977.145691,464.740509 984.189270,469.551666 
	C988.984680,476.448700 996.022217,476.769348 1003.363220,475.981934 
	C1011.494629,475.109772 1014.090271,472.350677 1015.406677,464.025757 
	C1015.415833,463.795380 1015.424988,463.565033 1015.434204,463.334686 
	C1015.294739,463.562744 1015.155273,463.790833 1014.365906,464.218719 
M506.391907,408.220154 
	C507.645996,405.606598 506.748138,404.383148 503.979858,403.651031 
	C496.921448,401.784332 490.917664,404.160400 485.113586,407.777618 
	C483.083649,409.042786 480.986877,410.200714 477.895447,412.006409 
	C478.233673,408.729462 478.445068,406.681000 478.680298,404.401855 
	C474.129456,404.401855 469.561371,404.401855 465.425018,404.401855 
	C465.425018,425.988220 465.425018,447.338623 465.425018,469.125671 
	C466.986969,469.125671 468.953186,469.125671 471.004791,469.901855 
	C470.813965,471.471405 470.623169,473.040924 470.428009,474.646240 
	C475.345215,474.646240 479.906769,474.646240 483.655334,474.646240 
	C483.432922,459.069794 483.165222,443.833832 483.079193,428.596863 
	C483.071014,427.152313 483.812775,425.260193 484.869720,424.328064 
	C490.061890,419.749115 495.742767,416.078979 503.576141,416.918488 
	C503.576141,416.918488 503.992767,416.906525 504.469574,417.393707 
	C506.464203,418.802094 508.458832,420.210449 510.364258,421.555817 
	C511.047974,418.802032 512.017029,414.899170 513.102966,410.525421 
	C510.486786,409.954742 508.423553,409.504669 506.391907,408.220154 
M796.069580,469.667725 
	C801.111877,476.145721 810.343323,478.141724 819.963501,475.002014 
	C822.925598,474.035309 824.953186,472.519501 825.961182,469.056427 
	C828.269226,469.092712 830.577271,469.128998 832.668701,469.804810 
	C831.822632,471.336243 830.976562,472.867676 829.976135,474.678528 
	C834.296387,474.678528 838.027832,474.678528 840.378418,474.678528 
	C844.104004,465.507355 847.604858,457.116852 850.900269,448.646484 
	C851.975403,445.883118 853.627014,444.961945 856.540100,444.995514 
	C867.361328,445.120117 878.185120,445.013458 889.516846,445.501129 
	C892.528564,453.159302 895.540283,460.817474 898.795776,469.095551 
	C899.000488,469.095551 900.469238,469.095551 902.220947,469.900635 
	C902.440369,471.506104 902.659851,473.111603 902.869507,474.645447 
	C908.368164,474.645447 913.561646,474.645447 919.240051,474.645447 
	C916.360657,468.874237 913.519043,463.663391 911.107117,458.260712 
	C900.350525,434.165558 889.760864,409.995697 878.930298,385.934052 
	C878.268066,384.462738 876.049927,383.691772 874.126770,382.006531 
	C872.518494,380.033539 873.177368,376.219940 868.969727,376.324280 
	C864.840393,376.426697 865.058594,379.945374 864.023254,382.214508 
	C852.593994,407.263489 841.350342,432.397095 829.950562,457.459625 
	C828.596863,460.435760 826.612854,463.125183 824.243713,466.086517 
	C819.968140,469.055511 816.022766,473.208679 810.766418,469.862701 
	C817.514099,469.055573 820.454468,464.894165 820.613647,459.223480 
	C818.045776,460.754120 815.151672,463.106445 811.840393,464.242279 
	C809.460205,465.058685 806.522949,464.251221 804.034912,463.227325 
	C804.034912,447.513550 804.034912,431.799774 804.034912,415.751709 
	C811.436401,415.751709 818.330383,415.751709 825.568237,415.751709 
	C826.032043,413.636597 826.440613,411.773193 826.769531,410.273041 
	C824.299377,409.308411 822.280884,408.520203 820.410767,406.926544 
	C820.555115,405.847076 820.699524,404.767609 820.815857,403.897949 
	C815.074646,403.897949 809.571350,403.897949 804.046997,403.077820 
	C804.484924,398.480469 804.922913,393.883118 805.382080,389.062500 
	C803.196045,388.682556 801.126221,388.322845 799.062988,387.221802 
	C799.277100,385.834656 799.491150,384.447540 799.716187,382.989624 
	C794.870544,382.989624 790.413574,382.989624 785.937927,382.989624 
	C786.386047,390.012909 786.824402,396.884277 787.286621,404.127991 
	C783.401489,404.127991 780.162720,404.127991 776.826111,404.127991 
	C776.826111,406.032440 776.826111,407.593903 776.826111,409.282104 
	C779.019226,409.405548 780.927795,409.513000 782.983154,409.628723 
	C783.197388,411.364197 783.376099,412.811890 783.586304,414.514679 
	C787.530701,413.290283 787.077087,416.042480 787.079224,418.367432 
	C787.089172,429.163818 787.140564,439.960571 787.066956,450.756470 
	C787.015137,458.363495 789.108276,464.831055 796.069580,469.667725 
M577.296570,420.735718 
	C571.606201,410.217255 562.442566,404.955933 550.894775,403.345917 
	C534.812744,401.103699 519.247681,410.290802 513.897461,425.150299 
	C508.472137,440.218414 514.507263,457.899292 527.825500,466.848145 
	C534.690979,474.236145 543.510620,476.178680 553.132568,476.042603 
	C579.527893,475.669312 595.134827,448.467010 582.013062,425.526093 
	C581.040344,423.825531 579.260071,422.586884 577.296570,420.735718 
M450.862762,391.291870 
	C444.534973,381.351959 435.261047,377.197571 423.743134,377.676666 
	C415.807922,378.006714 407.881805,378.555786 400.306915,378.986755 
	C400.306915,408.813660 400.306915,438.795258 400.306915,469.141113 
	C401.950470,469.141113 403.930969,469.141113 405.935883,469.913086 
	C405.709412,471.473724 405.482941,473.034363 405.260773,474.565155 
	C410.403442,474.565155 415.093689,474.565155 419.588593,474.565155 
	C419.271759,468.514191 418.863220,462.895813 418.715332,457.270630 
	C418.568268,451.675751 418.683105,446.073975 418.683105,440.533875 
	C423.512878,440.315796 427.802948,440.391510 432.023346,439.885803 
	C452.466522,437.436127 464.492279,418.069244 457.003601,399.444397 
	C455.860443,396.601288 453.217743,394.361145 450.862762,391.291870 
M767.320374,418.752625 
	C755.675232,401.272980 739.960876,399.628418 721.882935,407.356232 
	C721.811462,405.728027 721.752563,404.385590 721.703003,403.257599 
	C716.833252,403.257599 712.391724,403.257599 708.700928,403.257599 
	C708.700928,436.036072 708.700928,468.543365 708.700928,501.088562 
	C710.344177,501.284607 712.298889,501.517822 714.066467,502.537537 
	C713.799438,504.071472 713.532410,505.605408 713.258179,507.180847 
	C718.396484,507.180847 722.918030,507.180847 726.792114,507.180847 
	C726.792114,495.918335 726.792114,485.086823 726.792114,475.612946 
	C734.419861,475.612946 742.371826,476.814606 749.826721,475.398804 
	C777.764221,470.093109 782.628113,438.909576 769.973877,420.879150 
	C769.476990,420.171173 768.460266,419.828064 767.320374,418.752625 
M216.516830,328.128479 
	C211.994247,329.723236 207.344009,331.028412 202.968689,332.957245 
	C156.044388,353.643646 131.601868,407.138092 146.674667,455.951782 
	C148.499527,461.861603 151.750748,464.295197 156.180252,463.066803 
	C160.570801,461.849243 162.326111,457.788513 160.890884,452.132721 
	C160.522629,450.681488 160.071991,449.250610 159.723373,447.795044 
	C153.334961,421.121979 157.896286,396.529541 174.233627,374.431885 
	C190.330933,352.658844 212.461441,341.471466 239.935028,338.700989 
	C242.083435,338.613922 244.292709,338.815277 246.367096,338.377472 
	C250.232574,337.561615 252.507675,334.955109 252.341278,330.965424 
	C252.179214,327.079651 250.002304,323.705963 245.992416,324.091370 
	C236.402679,325.013123 226.890762,326.744324 216.516830,328.128479 
M688.583740,412.473053 
	C685.766296,407.925598 682.127686,403.726593 676.653015,403.608307 
	C671.362549,403.494049 665.781616,404.445770 660.795166,406.232361 
	C656.090210,407.917999 651.993225,411.300385 647.654175,413.921082 
	C639.034790,403.800629 634.002197,401.324738 625.341431,403.785645 
	C621.248230,404.948730 617.434631,407.104767 613.508606,408.843170 
	C611.611145,409.683411 609.746704,410.598175 607.288513,411.750519 
	C607.288513,408.782471 607.288513,406.612610 607.288513,404.566315 
	C602.465210,404.566315 597.946533,404.566315 594.151062,404.566315 
	C594.151062,426.265594 594.151062,447.568298 594.151062,469.155457 
	C595.903931,469.155457 597.894165,469.155457 599.794556,469.915253 
	C599.560242,471.474426 599.325928,473.033569 599.084778,474.638245 
	C604.023315,474.638245 608.423401,474.638245 611.870544,474.638245 
	C611.870544,459.519836 611.819153,444.772003 611.936279,430.025513 
	C611.950745,428.201599 612.271423,425.693024 613.456970,424.680573 
	C619.630127,419.408752 626.378357,415.225342 635.687805,417.462372 
	C636.156494,420.715759 636.994141,423.965149 637.029785,427.223267 
	C637.180847,441.050873 637.093933,454.881073 637.093933,469.131989 
	C637.993835,469.131989 639.954834,469.131989 641.990417,469.908112 
	C641.800720,471.476929 641.611084,473.045715 641.419678,474.628967 
	C646.340088,474.628967 650.897095,474.628967 654.722900,474.628967 
	C654.460022,461.513550 654.116821,448.753693 653.974915,435.991577 
	C653.849548,424.718170 657.369324,420.062622 668.378601,417.210968 
	C671.193481,416.481842 674.294678,416.857941 677.834900,417.289886 
	C678.330139,420.869385 679.207520,424.444092 679.252441,428.029236 
	C679.421875,441.543488 679.320496,455.061157 679.320496,469.100006 
	C680.051453,469.100006 681.991028,469.100006 684.097107,469.861481 
	C683.938538,471.439575 683.779968,473.017670 683.621704,474.592407 
	C688.518921,474.592407 693.067261,474.592407 697.478943,474.592407 
	C697.120789,469.423096 696.611816,464.631927 696.492065,459.831116 
	C696.218506,448.861755 696.325500,437.880157 695.894958,426.918610 
	C695.679565,421.435242 694.687561,415.953186 688.583740,412.473053 
M217.086670,525.621521 
	C218.219116,525.885803 219.355713,526.133545 220.483398,526.416748 
	C265.105347,537.621887 311.684723,517.690125 334.487946,477.539703 
	C343.199463,462.201019 347.769623,445.638245 347.756592,428.003784 
	C347.754639,425.353363 345.748474,422.063416 343.642303,420.287323 
	C342.300934,419.156189 338.045410,419.337982 336.904236,420.585083 
	C334.901184,422.774200 333.411011,426.177246 333.221619,429.167755 
	C330.942932,465.156494 313.356293,490.868866 281.280731,506.709564 
	C268.052582,513.242432 253.657791,514.860291 238.240250,514.328369 
	C231.431473,513.009155 224.606140,511.768799 217.819565,510.343903 
	C213.026718,509.337616 208.598328,512.384155 208.298782,517.120850 
	C208.038727,521.233337 210.936722,524.018738 217.086670,525.621521 
M287.337311,449.934052 
	C290.874817,452.081970 293.431732,451.207123 296.352814,448.197327 
	C307.726227,436.478394 319.390137,425.040314 331.007233,413.559753 
	C333.321686,411.272491 335.905487,409.257782 337.831024,407.582153 
	C331.082428,400.900024 325.203339,395.078888 319.001740,388.938354 
	C311.511017,396.486267 303.590393,404.327881 295.858429,412.351288 
	C293.792847,414.494751 291.818146,415.661469 288.302521,414.264435 
	C281.757996,411.935669 275.151245,409.761688 268.710510,407.174469 
	C266.997498,406.486328 265.113892,404.789001 264.475494,403.111053 
	C261.887848,396.309570 259.545441,389.393188 257.602356,382.383423 
	C257.120636,380.645569 257.918213,377.954712 259.096497,376.471619 
	C262.162842,372.612030 265.766998,369.179749 269.817841,365.318268 
	C274.210724,360.813110 278.603607,356.307922 282.716919,352.089447 
	C276.883728,346.087799 271.119720,340.157288 265.006439,333.867462 
	C260.671173,338.429535 256.333862,342.993713 251.338715,347.818604 
	C241.547470,357.584259 231.692383,367.287903 222.057098,377.205109 
	C221.016403,378.276276 220.589401,380.768524 221.010071,382.288116 
	C222.605499,388.051575 224.330643,393.828033 226.652206,399.327332 
	C228.798264,404.410889 228.079544,407.769928 223.915329,411.784088 
	C207.241913,427.856689 190.924255,444.303589 174.671371,460.805389 
	C163.370499,472.279388 164.330276,489.387939 176.480576,499.070221 
	C187.197495,507.610199 201.032303,506.778931 211.302841,496.651276 
	C228.388351,479.803497 245.375885,462.854828 262.243988,445.789795 
	C264.608429,443.397705 266.541687,442.946198 269.602020,444.062866 
	C275.216309,446.111481 280.985229,447.736206 287.337311,449.934052 
z"/>
<path fill="#3F5BFE" opacity="1.000000" stroke="none" 
	d="
M269.156586,365.576965 
	C265.766998,369.179749 262.162842,372.612030 259.096497,376.471619 
	C257.918213,377.954712 257.120636,380.645569 257.602356,382.383423 
	C259.545441,389.393188 261.887848,396.309570 264.475494,403.111053 
	C265.113892,404.789001 266.997498,406.486328 268.710510,407.174469 
	C275.151245,409.761688 281.757996,411.935669 288.551575,414.881042 
	C288.097015,426.844299 287.393372,438.190948 286.689697,449.537628 
	C280.985229,447.736206 275.216309,446.111481 269.602020,444.062866 
	C266.541687,442.946198 264.608429,443.397705 262.243988,445.789795 
	C245.375885,462.854828 228.388351,479.803497 211.302841,496.651276 
	C201.032303,506.778931 187.197495,507.610199 176.480576,499.070221 
	C164.330276,489.387939 163.370499,472.279388 174.671371,460.805389 
	C190.924255,444.303589 207.241913,427.856689 223.915329,411.784088 
	C228.079544,407.769928 228.798264,404.410889 226.652206,399.327332 
	C224.330643,393.828033 222.605499,388.051575 221.010071,382.288116 
	C220.589401,380.768524 221.016403,378.276276 222.057098,377.205109 
	C231.692383,367.287903 241.547470,357.584259 251.968964,347.879730 
	C258.118317,353.819550 263.637451,359.698273 269.156586,365.576965 
M186.026199,476.612976 
	C185.327789,477.327759 184.609314,478.024170 183.934494,478.760559 
	C181.198441,481.746246 180.655533,484.939819 183.494766,488.095276 
	C186.120605,491.013611 189.729492,490.805756 193.132858,487.599274 
	C196.041672,484.858704 198.977661,482.110229 201.570496,479.081726 
	C203.994110,476.250885 204.362381,472.883240 201.517365,470.098633 
	C198.720642,467.361237 195.466507,467.540314 192.556885,470.107788 
	C190.437592,471.977905 188.531326,474.089447 186.026199,476.612976 
z"/>
<path fill="#405DFE" opacity="1.000000" stroke="none" 
	d="
M239.040665,514.686279 
	C253.657791,514.860291 268.052582,513.242432 281.280731,506.709564 
	C313.356293,490.868866 330.942932,465.156494 333.221619,429.167755 
	C333.411011,426.177246 334.901184,422.774200 336.904236,420.585083 
	C338.045410,419.337982 342.300934,419.156189 343.642303,420.287323 
	C345.748474,422.063416 347.754639,425.353363 347.756592,428.003784 
	C347.769623,445.638245 343.199463,462.201019 334.487946,477.539703 
	C311.684723,517.690125 265.105347,537.621887 220.483398,526.416748 
	C219.355713,526.133545 218.219116,525.885803 217.177795,525.288574 
	C224.526169,521.532532 231.783417,518.109436 239.040665,514.686279 
z"/>
<path fill="#050505" opacity="1.000000" stroke="none" 
	d="
M683.930603,469.100006 
	C681.991028,469.100006 680.051453,469.100006 679.320496,469.100006 
	C679.320496,455.061157 679.421875,441.543488 679.252441,428.029236 
	C679.207520,424.444092 678.330139,420.869385 677.510864,416.662628 
	C674.088440,414.096741 670.990112,412.158142 667.505005,410.182068 
	C661.702271,412.754822 656.286194,415.365112 650.498657,418.076965 
	C649.452087,419.397247 648.184448,420.619537 648.191772,421.834167 
	C648.285767,437.374878 648.562256,452.914459 648.802490,469.131989 
	C647.124023,469.131989 644.519958,469.131989 641.915894,469.131989 
	C639.954834,469.131989 637.993835,469.131989 637.093933,469.131989 
	C637.093933,454.881073 637.180847,441.050873 637.029785,427.223267 
	C636.994141,423.965149 636.156494,420.715759 635.373047,416.828461 
	C632.002075,414.206390 628.945862,412.218231 625.503174,410.187195 
	C620.698792,412.044678 616.280884,413.945007 611.508301,415.898163 
	C607.046875,417.840057 605.797241,420.915070 605.898560,425.490540 
	C606.216309,439.848145 606.015381,454.217255 606.015381,469.155457 
	C604.806335,469.155457 602.345398,469.155457 599.884399,469.155457 
	C597.894165,469.155457 595.903931,469.155457 594.151062,469.155457 
	C594.151062,447.568298 594.151062,426.265594 594.151062,404.566315 
	C597.946533,404.566315 602.465210,404.566315 607.288513,404.566315 
	C607.288513,406.612610 607.288513,408.782471 607.288513,411.750519 
	C609.746704,410.598175 611.611145,409.683411 613.508606,408.843170 
	C617.434631,407.104767 621.248230,404.948730 625.341431,403.785645 
	C634.002197,401.324738 639.034790,403.800629 647.654175,413.921082 
	C651.993225,411.300385 656.090210,407.917999 660.795166,406.232361 
	C665.781616,404.445770 671.362549,403.494049 676.653015,403.608307 
	C682.127686,403.726593 685.766296,407.925598 688.762817,413.158447 
	C689.384644,417.792816 690.112366,421.734100 690.219116,425.692169 
	C690.603699,439.958160 690.779053,454.229797 691.044128,469.100006 
	C689.174194,469.100006 686.552368,469.100006 683.930603,469.100006 
z"/>
<path fill="#405DFE" opacity="1.000000" stroke="none" 
	d="
M239.087463,338.577423 
	C212.461441,341.471466 190.330933,352.658844 174.233627,374.431885 
	C157.896286,396.529541 153.334961,421.121979 159.723373,447.795044 
	C160.071991,449.250610 160.522629,450.681488 160.890884,452.132721 
	C162.326111,457.788513 160.570801,461.849243 156.180252,463.066803 
	C151.750748,464.295197 148.499527,461.861603 146.674667,455.951782 
	C131.601868,407.138092 156.044388,353.643646 202.968689,332.957245 
	C207.344009,331.028412 211.994247,329.723236 217.174225,328.352478 
	C224.916901,331.910126 232.002182,335.243774 239.087463,338.577423 
z"/>
<path fill="#080808" opacity="1.000000" stroke="none" 
	d="
M960.970642,416.786591 
	C960.582336,416.806335 960.193970,416.826080 959.458984,416.455536 
	C957.638916,412.581482 955.199463,410.547943 950.808105,410.756042 
	C946.730103,412.327484 943.072449,413.956421 939.063843,415.629669 
	C934.525879,417.561768 933.416016,420.788574 933.500061,425.297424 
	C933.768372,439.689484 933.599487,454.089691 933.599487,469.102112 
	C932.159119,469.102112 929.546204,469.102112 926.933289,469.102112 
	C925.111084,469.102112 923.288879,469.102112 921.692688,469.102112 
	C921.692688,447.557007 921.692688,426.215637 921.692688,404.517181 
	C925.582825,404.517181 930.095886,404.517181 934.887146,404.517181 
	C934.684875,406.547241 934.496216,408.440704 934.182617,411.588379 
	C936.717224,410.293121 938.532532,409.513367 940.197144,408.488800 
	C946.997742,404.303009 953.671143,401.260132 962.185730,404.351349 
	C965.807312,405.666107 970.463318,404.131470 975.407349,403.848297 
	C975.011169,397.010925 974.613403,390.146606 974.202698,383.058685 
	C978.576233,383.058685 983.005981,383.058685 987.933899,383.058685 
	C987.727661,384.372070 987.512085,385.744720 987.150146,387.947815 
	C987.003845,393.804962 987.003845,398.831635 987.003845,403.989563 
	C989.075012,403.989563 991.041260,403.989563 993.007507,403.989563 
	C998.248474,403.989563 1003.489441,403.989563 1009.071960,403.989563 
	C1008.898132,405.210419 1008.695496,406.633118 1007.995667,408.652710 
	C1000.592896,409.249603 993.687378,409.249603 986.283691,409.249603 
	C986.283691,417.768768 986.222107,425.713715 986.301514,433.657288 
	C986.377747,441.293884 986.423035,448.938568 986.836121,456.560516 
	C987.028931,460.118683 988.346375,463.418640 992.507690,464.362976 
	C999.274353,467.043304 1003.668884,462.555084 1008.378845,458.620972 
	C1008.769348,465.548889 1006.942566,467.606537 997.979980,469.953979 
	C992.808594,469.619659 988.467163,469.242096 984.125793,468.864532 
	C977.145691,464.740509 975.298828,458.148193 975.309265,450.631165 
	C975.324829,439.359039 975.300964,428.086823 975.314697,415.893646 
	C975.335571,413.062439 975.335571,411.152283 975.335571,409.241943 
	C970.859619,408.981049 966.870239,408.748505 962.422119,408.489197 
	C961.973633,411.053131 961.472107,413.919861 960.970642,416.786591 
z"/>
<path fill="#080808" opacity="1.000000" stroke="none" 
	d="
M714.253601,501.751038 
	C712.298889,501.517822 710.344177,501.284607 708.700928,501.088562 
	C708.700928,468.543365 708.700928,436.036072 708.700928,403.257599 
	C712.391724,403.257599 716.833252,403.257599 721.703003,403.257599 
	C721.752563,404.385590 721.811462,405.728027 721.882935,407.356232 
	C739.960876,399.628418 755.675232,401.272980 767.484802,419.416077 
	C773.665955,436.234222 772.114136,450.869049 758.744873,463.207794 
	C758.285034,463.489777 758.074097,463.744659 757.660889,463.956238 
	C757.128052,463.963013 756.962769,464.155243 756.624084,464.654358 
	C749.227112,469.421509 741.287659,470.238586 732.738098,470.085297 
	C728.612305,469.346008 724.898621,468.726410 721.281006,468.122864 
	C721.281006,479.249023 721.281006,490.122742 721.281006,501.201691 
	C719.165039,501.367096 716.709351,501.559052 714.253601,501.751038 
M726.246338,411.048645 
	C722.075195,413.086884 720.450928,416.269012 720.556274,421.040344 
	C720.820374,432.993896 720.735413,444.960754 720.501038,456.916565 
	C720.423462,460.877655 721.951294,462.803558 726.269714,463.831665 
	C742.896301,468.927887 755.616089,462.365204 757.505554,446.499054 
	C758.442932,438.628632 756.843506,430.386017 755.794739,422.390076 
	C755.460144,419.839203 753.204529,417.540314 751.784180,414.442230 
	C748.488525,412.344330 745.192810,410.246460 741.014832,408.008789 
	C736.324951,408.983673 731.635071,409.958557 726.246338,411.048645 
z"/>
<path fill="#040404" opacity="1.000000" stroke="none" 
	d="
M824.920959,465.947510 
	C826.612854,463.125183 828.596863,460.435760 829.950562,457.459625 
	C841.350342,432.397095 852.593994,407.263489 864.023254,382.214508 
	C865.058594,379.945374 864.840393,376.426697 868.969727,376.324280 
	C873.177368,376.219940 872.518494,380.033539 874.409424,382.648132 
	C887.379089,411.813599 900.066162,440.337524 912.857361,469.095551 
	C909.495239,469.095551 905.716675,469.095551 901.938049,469.095551 
	C900.469238,469.095551 899.000488,469.095551 898.795776,469.095551 
	C895.540283,460.817474 892.528564,453.159302 889.235962,444.873657 
	C887.945557,439.989532 885.509705,437.923004 880.524170,438.999054 
	C871.713013,438.988190 863.366638,439.036377 854.573853,439.066345 
	C851.394836,439.567993 846.917358,439.264893 846.219482,440.744598 
	C842.378357,448.888031 839.144897,457.367462 836.431091,465.961517 
	C835.673462,468.360535 835.102356,469.203888 832.885315,469.165283 
	C830.577271,469.128998 828.269226,469.092712 825.258545,468.964600 
	C824.677551,467.897675 824.799255,466.922577 824.920959,465.947510 
M871.015381,403.255249 
	C869.641968,400.474548 868.268494,397.693848 866.178650,393.462769 
	C860.060913,407.556000 854.487427,420.395599 848.741028,433.633453 
	C852.570129,433.633453 855.380920,433.633453 859.101013,433.710999 
	C867.313049,433.710999 875.525085,433.710999 884.374634,433.710999 
	C879.579834,423.033295 875.301880,413.506439 871.015381,403.255249 
z"/>
<path fill="#060606" opacity="1.000000" stroke="none" 
	d="
M405.911469,469.141113 
	C403.930969,469.141113 401.950470,469.141113 400.306915,469.141113 
	C400.306915,438.795258 400.306915,408.813660 400.306915,378.986755 
	C407.881805,378.555786 415.807922,378.006714 423.743134,377.676666 
	C435.261047,377.197571 444.534973,381.351959 450.992981,391.961060 
	C456.347260,408.166504 452.472229,420.021545 438.670715,429.885376 
	C438.195557,430.303497 438.027191,430.624084 437.909729,430.948730 
	C437.960632,430.952789 437.949585,430.851257 437.556641,430.774597 
	C431.485870,431.887726 425.808105,433.077515 419.679565,434.150452 
	C417.159363,434.033569 415.089966,434.033569 413.400116,434.033569 
	C413.400116,445.999390 413.400116,457.291351 413.400116,469.141113 
	C411.123779,469.141113 408.517639,469.141113 405.911469,469.141113 
M412.798706,385.924072 
	C412.798706,400.120056 412.798706,414.316071 412.798706,428.985168 
	C414.830536,428.985168 416.420685,428.985168 418.845856,429.296478 
	C427.662872,429.600616 434.793060,426.396301 437.987366,417.931366 
	C441.784332,407.869385 442.844879,397.601105 435.785278,387.502045 
	C433.825104,386.049042 431.864899,384.596069 429.136627,382.837463 
	C424.293091,382.814850 419.447327,382.719452 414.609039,382.868225 
	C414.049316,382.885498 413.531311,384.259216 412.798706,385.924072 
z"/>
<path fill="#060606" opacity="1.000000" stroke="none" 
	d="
M527.892883,466.152252 
	C514.507263,457.899292 508.472137,440.218414 513.897461,425.150299 
	C519.247681,410.290802 534.812744,401.103699 550.894775,403.345917 
	C562.442566,404.955933 571.606201,410.217255 577.596802,421.315430 
	C584.428894,439.655426 580.759888,452.809265 565.654297,464.990143 
	C565.244873,465.338409 565.080139,465.605896 564.942627,465.920074 
	C564.969727,465.966766 564.885925,465.898651 564.515991,465.903076 
	C558.468933,467.325836 552.791748,468.744202 546.670532,470.083923 
	C540.115356,468.720917 534.004089,467.436584 527.892883,466.152252 
M528.836853,416.324554 
	C522.607178,428.774933 523.520874,441.241089 528.999939,453.598175 
	C529.868896,455.557892 531.742798,457.072021 533.492004,459.385437 
	C541.782349,467.961670 555.669983,467.441376 562.754944,458.289093 
	C570.762573,447.944977 569.936035,425.787811 561.057556,415.162872 
	C557.027649,412.793579 552.997742,410.424255 548.076416,407.936584 
	C540.381897,407.201477 533.859680,409.187500 528.836853,416.324554 
z"/>
<path fill="#FFEA02" opacity="1.000000" stroke="none" 
	d="
M287.013489,449.735840 
	C287.393372,438.190948 288.097015,426.844299 288.859558,414.994843 
	C291.818146,415.661469 293.792847,414.494751 295.858429,412.351288 
	C303.590393,404.327881 311.511017,396.486267 319.001740,388.938354 
	C325.203339,395.078888 331.082428,400.900024 337.831024,407.582153 
	C335.905487,409.257782 333.321686,411.272491 331.007233,413.559753 
	C319.390137,425.040314 307.726227,436.478394 296.352814,448.197327 
	C293.431732,451.207123 290.874817,452.081970 287.013489,449.735840 
z"/>
<path fill="#050505" opacity="1.000000" stroke="none" 
	d="
M804.068054,403.897949 
	C809.571350,403.897949 815.074646,403.897949 820.815857,403.897949 
	C820.699524,404.767609 820.555115,405.847076 820.134216,407.690643 
	C818.330566,408.697815 816.806274,409.127411 815.275879,409.150543 
	C809.683777,409.234985 804.089600,409.183929 798.227844,409.183929 
	C798.227844,425.041870 798.076416,440.316803 798.340637,455.584564 
	C798.402161,459.140472 799.469604,462.938171 803.834229,464.168152 
	C806.522949,464.251221 809.460205,465.058685 811.840393,464.242279 
	C815.151672,463.106445 818.045776,460.754120 820.613647,459.223480 
	C820.454468,464.894165 817.514099,469.055573 809.944214,469.904663 
	C804.754211,469.623077 800.386475,469.299500 796.018738,468.975952 
	C789.108276,464.831055 787.015137,458.363495 787.066956,450.756470 
	C787.140564,439.960571 787.089172,429.163818 787.079224,418.367432 
	C787.077087,416.042480 787.530701,413.290283 783.586304,414.514679 
	C783.376099,412.811890 783.197388,411.364197 782.983154,409.628723 
	C780.927795,409.513000 779.019226,409.405548 776.826111,409.282104 
	C776.826111,407.593903 776.826111,406.032440 776.826111,404.127991 
	C780.162720,404.127991 783.401489,404.127991 787.286621,404.127991 
	C786.824402,396.884277 786.386047,390.012909 785.937927,382.989624 
	C790.413574,382.989624 794.870544,382.989624 799.716187,382.989624 
	C799.491150,384.447540 799.277100,385.834656 798.951050,388.012634 
	C798.572144,393.803680 798.305176,398.803894 798.033264,403.897949 
	C800.500610,403.897949 802.284302,403.897949 804.068054,403.897949 
z"/>
<path fill="#060606" opacity="1.000000" stroke="none" 
	d="
M503.992767,416.906525 
	C503.992767,416.906525 503.576141,416.918488 503.291260,416.537903 
	C501.360748,412.959686 499.231110,410.477081 494.750854,410.769073 
	C490.498352,412.398529 486.662781,414.109833 482.474701,415.861633 
	C480.474548,417.983185 477.429077,420.046478 477.402466,422.148010 
	C477.207092,437.577759 477.615814,453.015167 477.843719,469.125671 
	C476.145752,469.125671 473.532562,469.125671 470.919373,469.125671 
	C468.953186,469.125671 466.986969,469.125671 465.425018,469.125671 
	C465.425018,447.338623 465.425018,425.988220 465.425018,404.401855 
	C469.561371,404.401855 474.129456,404.401855 478.680298,404.401855 
	C478.445068,406.681000 478.233673,408.729462 477.895447,412.006409 
	C480.986877,410.200714 483.083649,409.042786 485.113586,407.777618 
	C490.917664,404.160400 496.921448,401.784332 503.979858,403.651031 
	C506.748138,404.383148 507.645996,405.606598 506.221680,408.932922 
	C505.365234,412.065979 504.678986,414.486237 503.992767,416.906525 
z"/>
<path fill="#989898" opacity="1.000000" stroke="none" 
	d="
M758.993774,463.180695 
	C772.114136,450.869049 773.665955,436.234222 767.667480,419.697266 
	C768.460266,419.828064 769.476990,420.171173 769.973877,420.879150 
	C782.628113,438.909576 777.764221,470.093109 749.826721,475.398804 
	C742.371826,476.814606 734.419861,475.612946 726.792114,475.612946 
	C726.792114,485.086823 726.792114,495.918335 726.792114,507.180847 
	C722.918030,507.180847 718.396484,507.180847 713.258179,507.180847 
	C713.532410,505.605408 713.799438,504.071472 714.160034,502.144287 
	C716.709351,501.559052 719.165039,501.367096 721.281006,501.201691 
	C721.281006,490.122742 721.281006,479.249023 721.281006,468.122864 
	C724.898621,468.726410 728.612305,469.346008 733.036255,470.303223 
	C736.850403,471.038910 740.031616,472.066589 743.041199,471.696930 
	C748.421692,471.036102 754.465271,470.984039 756.962830,464.489624 
	C756.962769,464.155243 757.128052,463.963013 757.783081,463.743408 
	C758.405151,463.447662 758.700562,463.316620 758.993774,463.180695 
z"/>
<path fill="#999999" opacity="1.000000" stroke="none" 
	d="
M438.977539,429.787781 
	C452.472229,420.021545 456.347260,408.166504 451.195892,392.236206 
	C453.217743,394.361145 455.860443,396.601288 457.003601,399.444397 
	C464.492279,418.069244 452.466522,437.436127 432.023346,439.885803 
	C427.802948,440.391510 423.512878,440.315796 418.683105,440.533875 
	C418.683105,446.073975 418.568268,451.675751 418.715332,457.270630 
	C418.863220,462.895813 419.271759,468.514191 419.588593,474.565155 
	C415.093689,474.565155 410.403442,474.565155 405.260773,474.565155 
	C405.482941,473.034363 405.709412,471.473724 405.923676,469.527100 
	C408.517639,469.141113 411.123779,469.141113 413.400116,469.141113 
	C413.400116,457.291351 413.400116,445.999390 413.400116,434.033569 
	C415.089966,434.033569 417.159363,434.033569 419.855652,434.458130 
	C427.047791,436.757843 432.973145,435.860260 437.949585,430.851257 
	C437.949585,430.851257 437.960632,430.952789 438.212463,430.903137 
	C438.635376,430.498230 438.806458,430.143005 438.977539,429.787781 
z"/>
<path fill="#999999" opacity="1.000000" stroke="none" 
	d="
M527.859192,466.500183 
	C534.004089,467.436584 540.115356,468.720917 546.914551,470.349854 
	C549.038025,471.062103 550.454163,471.606293 551.912354,471.766113 
	C557.590515,472.388550 563.572327,469.626434 564.885925,465.898651 
	C564.885925,465.898651 564.969727,465.966766 565.190552,466.121643 
	C565.573914,465.820770 565.736450,465.365051 565.899048,464.909363 
	C580.759888,452.809265 584.428894,439.655426 577.876099,421.514343 
	C579.260071,422.586884 581.040344,423.825531 582.013062,425.526093 
	C595.134827,448.467010 579.527893,475.669312 553.132568,476.042603 
	C543.510620,476.178680 534.690979,474.236145 527.859192,466.500183 
z"/>
<path fill="#999999" opacity="1.000000" stroke="none" 
	d="
M625.889648,410.230072 
	C628.945862,412.218231 632.002075,414.206390 635.090332,416.543030 
	C626.378357,415.225342 619.630127,419.408752 613.456970,424.680573 
	C612.271423,425.693024 611.950745,428.201599 611.936279,430.025513 
	C611.819153,444.772003 611.870544,459.519836 611.870544,474.638245 
	C608.423401,474.638245 604.023315,474.638245 599.084778,474.638245 
	C599.325928,473.033569 599.560242,471.474426 599.839478,469.535339 
	C602.345398,469.155457 604.806335,469.155457 606.015381,469.155457 
	C606.015381,454.217255 606.216309,439.848145 605.898560,425.490540 
	C605.797241,420.915070 607.046875,417.840057 611.596558,416.264038 
	C612.591003,417.264832 613.562439,418.595154 613.633972,418.548401 
	C617.766541,415.848022 621.824463,413.033447 625.889648,410.230072 
z"/>
<path fill="#989898" opacity="1.000000" stroke="none" 
	d="
M951.228455,410.813599 
	C955.199463,410.547943 957.638916,412.581482 959.169678,416.413910 
	C952.181641,416.088593 946.691772,419.550507 941.737915,423.829620 
	C940.381775,425.001068 939.601135,427.528229 939.578918,429.445068 
	C939.406128,444.364929 939.483459,459.287689 939.483459,474.602692 
	C936.128113,474.602692 931.585999,474.602692 926.746521,474.602692 
	C926.868347,473.043396 926.992432,471.454742 927.024902,469.484100 
	C929.546204,469.102112 932.159119,469.102112 933.599487,469.102112 
	C933.599487,454.089691 933.768372,439.689484 933.500061,425.297424 
	C933.416016,420.788574 934.525879,417.561768 939.205444,415.975037 
	C940.406128,416.774414 941.508728,417.854889 941.762878,417.682678 
	C944.989014,415.497742 948.093201,413.132751 951.228455,410.813599 
z"/>
<path fill="#989898" opacity="1.000000" stroke="none" 
	d="
M470.962097,469.513763 
	C473.532562,469.125671 476.145752,469.125671 477.843719,469.125671 
	C477.615814,453.015167 477.207092,437.577759 477.402466,422.148010 
	C477.429077,420.046478 480.474548,417.983185 482.596436,416.199280 
	C483.803925,417.027649 484.947815,418.171753 485.208252,417.997253 
	C488.601105,415.724091 491.868652,413.263947 495.167786,410.850891 
	C499.231110,410.477081 501.360748,412.959686 503.087341,416.494904 
	C495.742767,416.078979 490.061890,419.749115 484.869720,424.328064 
	C483.812775,425.260193 483.071014,427.152313 483.079193,428.596863 
	C483.165222,443.833832 483.432922,459.069794 483.655334,474.646240 
	C479.906769,474.646240 475.345215,474.646240 470.428009,474.646240 
	C470.623169,473.040924 470.813965,471.471405 470.962097,469.513763 
z"/>
<path fill="#989898" opacity="1.000000" stroke="none" 
	d="
M667.891724,410.219513 
	C670.990112,412.158142 674.088440,414.096741 677.225586,416.380798 
	C674.294678,416.857941 671.193481,416.481842 668.378601,417.210968 
	C657.369324,420.062622 653.849548,424.718170 653.974915,435.991577 
	C654.116821,448.753693 654.460022,461.513550 654.722900,474.628967 
	C650.897095,474.628967 646.340088,474.628967 641.419678,474.628967 
	C641.611084,473.045715 641.800720,471.476929 641.953125,469.520050 
	C644.519958,469.131989 647.124023,469.131989 648.802490,469.131989 
	C648.562256,452.914459 648.285767,437.374878 648.191772,421.834167 
	C648.184448,420.619537 649.452087,419.397247 650.781067,418.247803 
	C652.125122,419.060608 653.308228,420.528809 653.434204,420.443085 
	C658.313477,417.123596 663.096252,413.662231 667.891724,410.219513 
z"/>
<path fill="#989898" opacity="1.000000" stroke="none" 
	d="
M832.776978,469.485046 
	C835.102356,469.203888 835.673462,468.360535 836.431091,465.961517 
	C839.144897,457.367462 842.378357,448.888031 846.219482,440.744598 
	C846.917358,439.264893 851.394836,439.567993 854.877808,439.348145 
	C859.069946,439.767090 862.517212,440.065308 865.952515,439.962402 
	C870.969116,439.812042 875.977173,439.373688 880.988831,439.058105 
	C885.509705,437.923004 887.945557,439.989532 888.981567,444.619904 
	C878.185120,445.013458 867.361328,445.120117 856.540100,444.995514 
	C853.627014,444.961945 851.975403,445.883118 850.900269,448.646484 
	C847.604858,457.116852 844.104004,465.507355 840.378418,474.678528 
	C838.027832,474.678528 834.296387,474.678528 829.976135,474.678528 
	C830.976562,472.867676 831.822632,471.336243 832.776978,469.485046 
z"/>
<path fill="#FFEA02" opacity="1.000000" stroke="none" 
	d="
M269.487213,365.447632 
	C263.637451,359.698273 258.118317,353.819550 252.297882,347.749390 
	C256.333862,342.993713 260.671173,338.429535 265.006439,333.867462 
	C271.119720,340.157288 276.883728,346.087799 282.716919,352.089447 
	C278.603607,356.307922 274.210724,360.813110 269.487213,365.447632 
z"/>
<path fill="#939393" opacity="1.000000" stroke="none" 
	d="
M992.555664,463.922455 
	C988.346375,463.418640 987.028931,460.118683 986.836121,456.560516 
	C986.423035,448.938568 986.377747,441.293884 986.301514,433.657288 
	C986.222107,425.713715 986.283691,417.768768 986.283691,409.249603 
	C993.687378,409.249603 1000.592896,409.249603 1007.888794,409.070190 
	C1010.237183,409.125214 1012.195251,409.359680 1014.153687,409.591370 
	C1015.026672,415.128082 1014.517395,415.782684 1009.363525,415.718414 
	C1004.201599,415.654053 999.039917,415.577209 993.877869,415.528717 
	C993.565369,415.525757 993.251099,415.724884 992.603699,415.941895 
	C992.603699,431.712708 992.603699,447.597321 992.555664,463.922455 
z"/>
<path fill="#989898" opacity="1.000000" stroke="none" 
	d="
M803.934570,463.697754 
	C799.469604,462.938171 798.402161,459.140472 798.340637,455.584564 
	C798.076416,440.316803 798.227844,425.041870 798.227844,409.183929 
	C804.089600,409.183929 809.683777,409.234985 815.275879,409.150543 
	C816.806274,409.127411 818.330566,408.697815 820.060059,408.093353 
	C822.280884,408.520203 824.299377,409.308411 826.769531,410.273041 
	C826.440613,411.773193 826.032043,413.636597 825.568237,415.751709 
	C818.330383,415.751709 811.436401,415.751709 804.034912,415.751709 
	C804.034912,431.799774 804.034912,447.513550 803.934570,463.697754 
z"/>
<path fill="#939393" opacity="1.000000" stroke="none" 
	d="
M684.013855,469.480743 
	C686.552368,469.100006 689.174194,469.100006 691.044128,469.100006 
	C690.779053,454.229797 690.603699,439.958160 690.219116,425.692169 
	C690.112366,421.734100 689.384644,417.792816 688.971558,413.421326 
	C694.687561,415.953186 695.679565,421.435242 695.894958,426.918610 
	C696.325500,437.880157 696.218506,448.861755 696.492065,459.831116 
	C696.611816,464.631927 697.120789,469.423096 697.478943,474.592407 
	C693.067261,474.592407 688.518921,474.592407 683.621704,474.592407 
	C683.779968,473.017670 683.938538,471.439575 684.013855,469.480743 
z"/>
<path fill="#989898" opacity="1.000000" stroke="none" 
	d="
M902.079468,469.498108 
	C905.716675,469.095551 909.495239,469.095551 912.857361,469.095551 
	C900.066162,440.337524 887.379089,411.813599 874.623901,382.942322 
	C876.049927,383.691772 878.268066,384.462738 878.930298,385.934052 
	C889.760864,409.995697 900.350525,434.165558 911.107117,458.260712 
	C913.519043,463.663391 916.360657,468.874237 919.240051,474.645447 
	C913.561646,474.645447 908.368164,474.645447 902.869507,474.645447 
	C902.659851,473.111603 902.440369,471.506104 902.079468,469.498108 
z"/>
<path fill="#FFEA02" opacity="1.000000" stroke="none" 
	d="
M239.511246,338.639221 
	C232.002182,335.243774 224.916901,331.910126 217.589523,328.362610 
	C226.890762,326.744324 236.402679,325.013123 245.992416,324.091370 
	C250.002304,323.705963 252.179214,327.079651 252.341278,330.965424 
	C252.507675,334.955109 250.232574,337.561615 246.367096,338.377472 
	C244.292709,338.815277 242.083435,338.613922 239.511246,338.639221 
z"/>
<path fill="#FFEA02" opacity="1.000000" stroke="none" 
	d="
M238.640457,514.507324 
	C231.783417,518.109436 224.526169,521.532532 216.962631,525.054688 
	C210.936722,524.018738 208.038727,521.233337 208.298782,517.120850 
	C208.598328,512.384155 213.026718,509.337616 217.819565,510.343903 
	C224.606140,511.768799 231.431473,513.009155 238.640457,514.507324 
z"/>
<path fill="#999999" opacity="1.000000" stroke="none" 
	d="
M984.157532,469.208099 
	C988.467163,469.242096 992.808594,469.619659 997.611389,470.045105 
	C1005.371948,473.316345 1009.641663,468.137207 1014.680359,464.106812 
	C1014.994812,463.994904 1014.971741,463.971466 1014.971741,463.971466 
	C1014.090271,472.350677 1011.494629,475.109772 1003.363220,475.981934 
	C996.022217,476.769348 988.984680,476.448700 984.157532,469.208099 
z"/>
<path fill="#999999" opacity="1.000000" stroke="none" 
	d="
M796.044189,469.321838 
	C800.386475,469.299500 804.754211,469.623077 809.579956,469.997101 
	C816.022766,473.208679 819.968140,469.055511 824.582336,466.017029 
	C824.799255,466.922577 824.677551,467.897675 824.831177,469.035614 
	C824.953186,472.519501 822.925598,474.035309 819.963501,475.002014 
	C810.343323,478.141724 801.111877,476.145721 796.044189,469.321838 
z"/>
<path fill="#999999" opacity="1.000000" stroke="none" 
	d="
M961.076416,417.119568 
	C961.472107,413.919861 961.973633,411.053131 962.422119,408.489197 
	C966.870239,408.748505 970.859619,408.981049 975.335571,409.241943 
	C975.335571,411.152283 975.335571,413.062439 975.246582,415.420959 
	C973.710571,415.716797 972.263611,415.564331 970.697693,415.399323 
	C970.399414,413.629303 970.135559,412.063721 969.717041,409.580505 
	C968.402100,414.556274 967.330444,418.611511 966.162598,423.030884 
	C964.208984,420.842712 962.695618,419.147644 961.076416,417.119568 
z"/>
<path fill="#989898" opacity="1.000000" stroke="none" 
	d="
M804.057495,403.487885 
	C802.284302,403.897949 800.500610,403.897949 798.033264,403.897949 
	C798.305176,398.803894 798.572144,393.803680 798.947754,388.383301 
	C801.126221,388.322845 803.196045,388.682556 805.382080,389.062500 
	C804.922913,393.883118 804.484924,398.480469 804.057495,403.487885 
z"/>
<path fill="#989898" opacity="1.000000" stroke="none" 
	d="
M992.846313,403.552429 
	C991.041260,403.989563 989.075012,403.989563 987.003845,403.989563 
	C987.003845,398.831635 987.003845,393.804962 987.124023,388.319580 
	C989.309814,388.223480 991.375427,388.586060 993.446106,388.949493 
	C993.189087,393.733002 992.937073,398.424133 992.846313,403.552429 
z"/>
<path fill="#999999" opacity="1.000000" stroke="none" 
	d="
M504.231171,417.150116 
	C504.678986,414.486237 505.365234,412.065979 506.205872,409.350159 
	C508.423553,409.504669 510.486786,409.954742 513.102966,410.525421 
	C512.017029,414.899170 511.047974,418.802032 510.364258,421.555817 
	C508.458832,420.210449 506.464203,418.802094 504.231171,417.150116 
z"/>
<path fill="#999999" opacity="1.000000" stroke="none" 
	d="
M1015.005371,464.006897 
	C1015.155273,463.790833 1015.294739,463.562744 1015.434204,463.334656 
	C1015.424988,463.565033 1015.415833,463.795380 1015.189209,463.998596 
	C1014.971741,463.971466 1014.994812,463.994904 1015.005371,464.006897 
z"/>
<path fill="#FDFDFD" opacity="1.000000" stroke="none" 
	d="
M186.278152,476.353210 
	C188.531326,474.089447 190.437592,471.977905 192.556885,470.107788 
	C195.466507,467.540314 198.720642,467.361237 201.517365,470.098633 
	C204.362381,472.883240 203.994110,476.250885 201.570496,479.081726 
	C198.977661,482.110229 196.041672,484.858704 193.132858,487.599274 
	C189.729492,490.805756 186.120605,491.013611 183.494766,488.095276 
	C180.655533,484.939819 181.198441,481.746246 183.934494,478.760559 
	C184.609314,478.024170 185.327789,477.327759 186.278152,476.353210 
z"/>
<path fill="#EDEDED" opacity="1.000000" stroke="none" 
	d="
M667.505005,410.182007 
	C663.096252,413.662231 658.313477,417.123596 653.434204,420.443085 
	C653.308228,420.528809 652.125122,419.060608 651.152588,418.146240 
	C656.286194,415.365112 661.702271,412.754822 667.505005,410.182007 
z"/>
<path fill="#EDEDED" opacity="1.000000" stroke="none" 
	d="
M625.503174,410.187195 
	C621.824463,413.033447 617.766541,415.848022 613.633972,418.548401 
	C613.562439,418.595154 612.591003,417.264832 611.951172,416.211243 
	C616.280884,413.945007 620.698792,412.044678 625.503174,410.187195 
z"/>
<path fill="#EDEDED" opacity="1.000000" stroke="none" 
	d="
M950.808105,410.756073 
	C948.093201,413.132751 944.989014,415.497742 941.762878,417.682678 
	C941.508728,417.854889 940.406128,416.774414 939.556335,415.930725 
	C943.072449,413.956421 946.730103,412.327484 950.808105,410.756073 
z"/>
<path fill="#FDFDFD" opacity="1.000000" stroke="none" 
	d="
M751.827881,415.126129 
	C753.204529,417.540314 755.460144,419.839203 755.794739,422.390076 
	C756.843506,430.386017 758.442932,438.628632 757.505554,446.499054 
	C755.616089,462.365204 742.896301,468.927887 726.084961,463.065186 
	C725.934082,450.026672 725.778015,437.748627 726.165405,425.487823 
	C726.240845,423.100037 727.876770,420.125427 729.743896,418.545410 
	C736.267944,413.024719 743.947327,412.961334 751.827881,415.126129 
z"/>
<path fill="#939393" opacity="1.000000" stroke="none" 
	d="
M751.806030,414.784180 
	C743.947327,412.961334 736.267944,413.024719 729.743896,418.545410 
	C727.876770,420.125427 726.240845,423.100037 726.165405,425.487823 
	C725.778015,437.748627 725.934082,450.026672 725.806885,462.775818 
	C721.951294,462.803558 720.423462,460.877655 720.501038,456.916565 
	C720.735413,444.960754 720.820374,432.993896 720.556274,421.040344 
	C720.450928,416.269012 722.075195,413.086884 726.598694,411.346497 
	C727.263245,412.257965 727.777405,413.433899 727.858826,413.404694 
	C732.560974,411.716034 737.227356,409.927429 741.897156,408.148560 
	C745.192810,410.246460 748.488525,412.344330 751.806030,414.784180 
z"/>
<path fill="#EDEDED" opacity="1.000000" stroke="none" 
	d="
M756.624084,464.654358 
	C754.465271,470.984039 748.421692,471.036102 743.041199,471.696930 
	C740.031616,472.066589 736.850403,471.038910 733.448364,470.422913 
	C741.287659,470.238586 749.227112,469.421509 756.624084,464.654358 
z"/>
<path fill="#EDEDED" opacity="1.000000" stroke="none" 
	d="
M741.455994,408.078674 
	C737.227356,409.927429 732.560974,411.716034 727.858826,413.404694 
	C727.777405,413.433899 727.263245,412.257965 726.948120,411.288940 
	C731.635071,409.958557 736.324951,408.983673 741.455994,408.078674 
z"/>
<path fill="#EDEDED" opacity="1.000000" stroke="none" 
	d="
M758.744873,463.207794 
	C758.700562,463.316620 758.405151,463.447662 757.985352,463.786682 
	C758.074097,463.744659 758.285034,463.489777 758.744873,463.207794 
z"/>
<path fill="#FDFDFD" opacity="1.000000" stroke="none" 
	d="
M871.023926,403.979614 
	C875.301880,413.506439 879.579834,423.033295 884.374634,433.710999 
	C875.525085,433.710999 867.313049,433.710999 858.624023,433.313171 
	C858.816284,430.917084 859.307861,428.836761 860.186157,426.935028 
	C863.733948,419.253296 867.400879,411.626587 871.023926,403.979614 
z"/>
<path fill="#999999" opacity="1.000000" stroke="none" 
	d="
M871.019653,403.617432 
	C867.400879,411.626587 863.733948,419.253296 860.186157,426.935028 
	C859.307861,428.836761 858.816284,430.917084 858.169312,433.274384 
	C855.380920,433.633453 852.570129,433.633453 848.741028,433.633453 
	C854.487427,420.395599 860.060913,407.556000 866.178650,393.462769 
	C868.268494,397.693848 869.641968,400.474548 871.019653,403.617432 
z"/>
<path fill="#999999" opacity="1.000000" stroke="none" 
	d="
M880.524170,438.999054 
	C875.977173,439.373688 870.969116,439.812042 865.952515,439.962402 
	C862.517212,440.065308 859.069946,439.767090 855.324097,439.366394 
	C863.366638,439.036377 871.713013,438.988190 880.524170,438.999054 
z"/>
<path fill="#FBFBFB" opacity="1.000000" stroke="none" 
	d="
M435.699738,388.182495 
	C442.844879,397.601105 441.784332,407.869385 437.987366,417.931366 
	C434.793060,426.396301 427.662872,429.600616 418.488647,428.676208 
	C418.142792,416.492218 418.304413,404.925507 418.078735,393.366394 
	C418.006195,389.650421 419.517334,388.206451 422.853180,388.153076 
	C427.134094,388.084564 431.417450,388.165802 435.699738,388.182495 
z"/>
<path fill="#999999" opacity="1.000000" stroke="none" 
	d="
M435.742493,387.842285 
	C431.417450,388.165802 427.134094,388.084564 422.853180,388.153076 
	C419.517334,388.206451 418.006195,389.650421 418.078735,393.366394 
	C418.304413,404.925507 418.142792,416.492218 418.071106,428.520569 
	C416.420685,428.985168 414.830536,428.985168 412.798706,428.985168 
	C412.798706,414.316071 412.798706,400.120056 413.343384,385.451050 
	C419.226929,384.366364 424.565796,383.754730 429.904694,383.143097 
	C431.864899,384.596069 433.825104,386.049042 435.742493,387.842285 
z"/>
<path fill="#EDEDED" opacity="1.000000" stroke="none" 
	d="
M429.520660,382.990295 
	C424.565796,383.754730 419.226929,384.366364 413.440979,384.991028 
	C413.531311,384.259216 414.049316,382.885498 414.609039,382.868225 
	C419.447327,382.719452 424.293091,382.814850 429.520660,382.990295 
z"/>
<path fill="#EDEDED" opacity="1.000000" stroke="none" 
	d="
M437.556641,430.774597 
	C432.973145,435.860260 427.047791,436.757843 420.306396,434.574982 
	C425.808105,433.077515 431.485870,431.887726 437.556641,430.774597 
z"/>
<path fill="#EDEDED" opacity="1.000000" stroke="none" 
	d="
M438.670715,429.885376 
	C438.806458,430.143005 438.635376,430.498230 438.161560,430.899048 
	C438.027191,430.624084 438.195557,430.303497 438.670715,429.885376 
z"/>
<path fill="#FDFDFD" opacity="1.000000" stroke="none" 
	d="
M561.171387,415.836914 
	C569.936035,425.787811 570.762573,447.944977 562.754944,458.289093 
	C555.669983,467.441376 541.782349,467.961670 533.382690,458.694885 
	C532.199951,451.157349 530.236084,444.310669 530.233643,437.463348 
	C530.228149,421.963989 539.889221,412.619354 553.482788,414.017822 
	C556.080505,414.285095 558.610291,415.213531 561.171387,415.836914 
z"/>
<path fill="#999999" opacity="1.000000" stroke="none" 
	d="
M561.114502,415.499878 
	C558.610291,415.213531 556.080505,414.285095 553.482788,414.017822 
	C539.889221,412.619354 530.228149,421.963989 530.233643,437.463348 
	C530.236084,444.310669 532.199951,451.157349 533.212769,458.398224 
	C531.742798,457.072021 529.868896,455.557892 528.999939,453.598175 
	C523.520874,441.241089 522.607178,428.774933 529.515198,416.138184 
	C535.981079,413.872284 541.779663,411.822327 547.539612,409.668915 
	C548.133789,409.446777 548.497253,408.607697 548.967834,408.054932 
	C552.997742,410.424255 557.027649,412.793579 561.114502,415.499878 
z"/>
<path fill="#EDEDED" opacity="1.000000" stroke="none" 
	d="
M548.522095,407.995728 
	C548.497253,408.607697 548.133789,409.446777 547.539612,409.668915 
	C541.779663,411.822327 535.981079,413.872284 529.800781,415.965668 
	C533.859680,409.187500 540.381897,407.201477 548.522095,407.995728 
z"/>
<path fill="#EDEDED" opacity="1.000000" stroke="none" 
	d="
M564.515991,465.903076 
	C563.572327,469.626434 557.590515,472.388550 551.912354,471.766113 
	C550.454163,471.606293 549.038025,471.062103 547.358582,470.428528 
	C552.791748,468.744202 558.468933,467.325836 564.515991,465.903076 
z"/>
<path fill="#EDEDED" opacity="1.000000" stroke="none" 
	d="
M565.654297,464.990143 
	C565.736450,465.365051 565.573914,465.820770 565.163452,466.074951 
	C565.080139,465.605896 565.244873,465.338409 565.654297,464.990143 
z"/>
<path fill="#EDEDED" opacity="1.000000" stroke="none" 
	d="
M494.750854,410.769073 
	C491.868652,413.263947 488.601105,415.724091 485.208252,417.997253 
	C484.947815,418.171753 483.803925,417.027649 482.948914,416.158783 
	C486.662781,414.109833 490.498352,412.398529 494.750854,410.769073 
z"/>
</svg>