<svg xmlns="http://www.w3.org/2000/svg" xmlns:xlink="http://www.w3.org/1999/xlink" width="1080" zoomAndPan="magnify" viewBox="0 0 810 809.999993" height="1080" preserveAspectRatio="xMidYMid meet" version="1.2"><defs/><g id="c59098158c"><path style=" stroke:none;fill-rule:evenodd;fill:#03a9f4;fill-opacity:1;" d="M 182.039062 416.085938 C 180.761719 446.976562 157.746094 472.238281 128.167969 477.285156 L 128.167969 482.289062 C 128.167969 501.359375 112.625 516.902344 93.554688 516.902344 C 74.488281 516.902344 58.941406 501.359375 58.941406 482.289062 L 58.941406 477.285156 C 29.367188 472.238281 6.347656 446.976562 5.070312 416.085938 C 3.894531 387.566406 5.011719 358.234375 5.011719 329.042969 C 5.011719 309.121094 21.253906 292.878906 41.175781 292.878906 L 145.933594 292.878906 C 165.855469 292.878906 182.097656 309.121094 182.097656 329.042969 C 182.097656 358.234375 183.214844 387.566406 182.039062 416.085938 Z M 182.039062 416.085938 "/><path style=" stroke:none;fill-rule:evenodd;fill:#ffff66;fill-opacity:1;" d="M 41.175781 309.359375 L 145.933594 309.359375 C 156.757812 309.359375 165.613281 318.21875 165.613281 329.042969 L 165.613281 395.496094 L 21.496094 395.496094 L 21.496094 329.042969 C 21.496094 318.21875 30.351562 309.359375 41.175781 309.359375 Z M 111.6875 461.722656 L 111.6875 482.289062 C 111.6875 492.261719 103.527344 500.421875 93.554688 500.421875 C 83.582031 500.421875 75.425781 492.261719 75.425781 482.289062 L 75.425781 461.722656 L 69.8125 461.722656 C 43.910156 461.722656 22.601562 441.0625 21.539062 415.40625 L 165.570312 415.40625 C 164.511719 441.0625 143.199219 461.722656 117.296875 461.722656 L 111.683594 461.722656 Z M 93.554688 473.523438 C 98.144531 473.523438 101.863281 477.242188 101.863281 481.828125 C 101.863281 486.417969 98.144531 490.136719 93.554688 490.136719 C 88.96875 490.136719 85.25 486.417969 85.25 481.828125 C 85.25 477.242188 88.96875 473.523438 93.554688 473.523438 Z M 93.554688 473.523438 "/><path style=" stroke:none;fill-rule:evenodd;fill:#4fc3f7;fill-opacity:1;" d="M 21.496094 355.371094 C 26.90625 356.289062 32.480469 356.707031 38.855469 354.71875 C 46.898438 352.214844 56.21875 345.886719 64.304688 345.839844 C 72.390625 345.796875 79.25 352.039062 86.324219 355.640625 C 93.402344 359.246094 100.699219 360.214844 107.6875 356.082031 C 114.675781 351.949219 121.355469 342.71875 128.5625 340.832031 C 135.773438 338.941406 143.507812 344.390625 152.164062 350.71875 C 156.460938 353.859375 160.980469 357.214844 165.617188 360.675781 L 165.617188 329.042969 C 165.617188 318.21875 156.757812 309.359375 145.933594 309.359375 L 41.175781 309.359375 C 30.351562 309.359375 21.496094 318.21875 21.496094 329.042969 L 21.496094 355.375 Z M 21.496094 355.371094 "/><g style="fill:#000000;fill-opacity:1;"><g transform="translate(196.617328, 436.347107)"><path style="stroke:none" d="M 13.109375 -84.90625 C 13.265625 -86.226562 13.707031 -87.3125 14.4375 -88.15625 C 15.175781 -89.007812 16.628906 -89.59375 18.796875 -89.90625 C 19.878906 -90.050781 21.210938 -90.179688 22.796875 -90.296875 C 24.378906 -90.421875 26.019531 -90.5 27.71875 -90.53125 C 29.425781 -90.570312 30.972656 -90.59375 32.359375 -90.59375 C 39.472656 -90.59375 45.796875 -89.507812 51.328125 -87.34375 C 56.859375 -85.175781 61.207031 -82.023438 64.375 -77.890625 C 67.550781 -73.753906 69.140625 -68.707031 69.140625 -62.75 C 69.140625 -58.1875 68.070312 -54.203125 65.9375 -50.796875 C 63.8125 -47.398438 60.953125 -44.5625 57.359375 -42.28125 C 53.765625 -40 49.820312 -38.296875 45.53125 -37.171875 C 41.238281 -36.054688 36.890625 -35.5 32.484375 -35.5 C 30.929688 -35.5 29.457031 -35.554688 28.0625 -35.671875 C 26.675781 -35.785156 25.328125 -35.957031 24.015625 -36.1875 C 23.773438 -30.695312 23.554688 -25.242188 23.359375 -19.828125 C 23.171875 -14.421875 22.925781 -8.972656 22.625 -3.484375 C 22.539062 -1.628906 21.820312 -0.296875 20.46875 0.515625 C 19.113281 1.328125 17.507812 1.734375 15.65625 1.734375 C 13.488281 1.734375 11.84375 1.269531 10.71875 0.34375 C 9.601562 -0.582031 9.082031 -1.972656 9.15625 -3.828125 C 10.007812 -17.285156 10.570312 -30.816406 10.84375 -44.421875 C 11.113281 -58.035156 11.867188 -71.53125 13.109375 -84.90625 Z M 24.59375 -47.4375 C 25.90625 -47.289062 27.21875 -47.117188 28.53125 -46.921875 C 29.851562 -46.722656 31.398438 -46.625 33.171875 -46.625 C 35.648438 -46.625 38.179688 -46.953125 40.765625 -47.609375 C 43.359375 -48.273438 45.753906 -49.300781 47.953125 -50.6875 C 50.160156 -52.082031 51.941406 -53.84375 53.296875 -55.96875 C 54.648438 -58.09375 55.328125 -60.585938 55.328125 -63.453125 C 55.328125 -65.234375 54.941406 -67.066406 54.171875 -68.953125 C 53.398438 -70.847656 52.125 -72.566406 50.34375 -74.109375 C 48.5625 -75.660156 46.28125 -76.921875 43.5 -77.890625 C 40.71875 -78.859375 37.273438 -79.34375 33.171875 -79.34375 C 31.703125 -79.34375 30.40625 -79.285156 29.28125 -79.171875 C 28.164062 -79.054688 27.144531 -78.921875 26.21875 -78.765625 C 25.988281 -75.441406 25.773438 -72.097656 25.578125 -68.734375 C 25.378906 -65.367188 25.203125 -61.945312 25.046875 -58.46875 C 24.898438 -54.988281 24.75 -51.3125 24.59375 -47.4375 Z M 24.59375 -47.4375 "/></g></g><g style="fill:#000000;fill-opacity:1;"><g transform="translate(266.44167, 436.347107)"><path style="stroke:none" d="M 10.5625 -57.765625 C 10.632812 -59.703125 11.289062 -61.132812 12.53125 -62.0625 C 13.769531 -62.988281 15.507812 -63.453125 17.75 -63.453125 C 19.675781 -63.453125 21.179688 -63.023438 22.265625 -62.171875 C 23.347656 -61.328125 23.890625 -60.128906 23.890625 -58.578125 C 23.890625 -58.117188 23.890625 -57.519531 23.890625 -56.78125 C 23.890625 -56.050781 23.867188 -55.257812 23.828125 -54.40625 C 23.796875 -53.550781 23.703125 -52.582031 23.546875 -51.5 C 25.710938 -55.363281 28.242188 -58.300781 31.140625 -60.3125 C 34.046875 -62.332031 37.316406 -63.34375 40.953125 -63.34375 C 42.492188 -63.34375 44.289062 -63.109375 46.34375 -62.640625 C 48.394531 -62.171875 50.5 -61.28125 52.65625 -59.96875 C 53.59375 -59.425781 54.332031 -58.691406 54.875 -57.765625 C 55.414062 -56.835938 55.566406 -55.5625 55.328125 -53.9375 C 55.171875 -51.925781 54.550781 -50.398438 53.46875 -49.359375 C 52.394531 -48.316406 51.082031 -47.796875 49.53125 -47.796875 C 48.757812 -47.796875 48.046875 -47.945312 47.390625 -48.25 C 46.734375 -48.5625 46.09375 -48.875 45.46875 -49.1875 C 44.625 -49.644531 43.753906 -50.066406 42.859375 -50.453125 C 41.972656 -50.847656 40.875 -51.046875 39.5625 -51.046875 C 35.226562 -51.046875 31.765625 -48.957031 29.171875 -44.78125 C 26.578125 -40.601562 24.472656 -35.265625 22.859375 -28.765625 C 22.773438 -26.140625 22.710938 -23.6875 22.671875 -21.40625 C 22.640625 -19.125 22.601562 -16.957031 22.5625 -14.90625 C 22.519531 -12.851562 22.476562 -10.914062 22.4375 -9.09375 C 22.40625 -7.28125 22.390625 -5.523438 22.390625 -3.828125 C 22.390625 -2.585938 22.039062 -1.582031 21.34375 -0.8125 C 20.644531 -0.0390625 19.789062 0.535156 18.78125 0.921875 C 17.78125 1.316406 16.816406 1.515625 15.890625 1.515625 C 13.722656 1.515625 12.097656 1.007812 11.015625 0 C 9.929688 -1.007812 9.21875 -2.34375 8.875 -4 C 8.53125 -5.664062 8.359375 -7.460938 8.359375 -9.390625 C 8.359375 -10.941406 8.414062 -12.875 8.53125 -15.1875 C 8.644531 -17.507812 8.796875 -19.832031 8.984375 -22.15625 C 9.179688 -24.476562 9.394531 -26.410156 9.625 -27.953125 Z M 10.5625 -57.765625 "/></g></g><g style="fill:#000000;fill-opacity:1;"><g transform="translate(320.955765, 436.347107)"><path style="stroke:none" d="M 34.453125 -63.5625 C 36.234375 -63.5625 38.128906 -63.390625 40.140625 -63.046875 C 42.148438 -62.703125 44.039062 -62.195312 45.8125 -61.53125 C 47.59375 -60.875 49.023438 -60.046875 50.109375 -59.046875 C 53.671875 -56.179688 56.300781 -52.445312 58 -47.84375 C 59.695312 -43.25 60.546875 -38.398438 60.546875 -33.296875 C 60.546875 -29.035156 59.984375 -24.914062 58.859375 -20.9375 C 57.742188 -16.957031 56.101562 -13.34375 53.9375 -10.09375 C 51.769531 -6.84375 49.0625 -4.269531 45.8125 -2.375 C 42.570312 -0.476562 38.863281 0.46875 34.6875 0.46875 C 30.195312 0.46875 26.15625 -0.378906 22.5625 -2.078125 C 18.96875 -3.785156 15.875 -6.109375 13.28125 -9.046875 C 10.6875 -11.984375 8.710938 -15.382812 7.359375 -19.25 C 6.015625 -23.125 5.34375 -27.1875 5.34375 -31.4375 C 5.34375 -35.53125 5.941406 -39.488281 7.140625 -43.3125 C 8.335938 -47.144531 10.171875 -50.585938 12.640625 -53.640625 C 15.117188 -56.703125 18.175781 -59.117188 21.8125 -60.890625 C 25.445312 -62.671875 29.660156 -63.5625 34.453125 -63.5625 Z M 18.796875 -32.25 C 18.796875 -28.6875 19.375 -25.28125 20.53125 -22.03125 C 21.6875 -18.789062 23.425781 -16.164062 25.75 -14.15625 C 28.070312 -12.144531 30.894531 -11.140625 34.21875 -11.140625 C 36.457031 -11.140625 38.410156 -11.773438 40.078125 -13.046875 C 41.742188 -14.328125 43.097656 -16.046875 44.140625 -18.203125 C 45.179688 -20.367188 45.929688 -22.707031 46.390625 -25.21875 C 46.859375 -27.738281 47.09375 -30.195312 47.09375 -32.59375 C 47.09375 -37.238281 46.414062 -41.085938 45.0625 -44.140625 C 43.707031 -47.191406 41.832031 -49.53125 39.4375 -51.15625 C 38.507812 -51.46875 37.617188 -51.660156 36.765625 -51.734375 C 35.921875 -51.816406 35.035156 -51.859375 34.109375 -51.859375 C 31.554688 -51.859375 29.3125 -51.332031 27.375 -50.28125 C 25.4375 -49.238281 23.828125 -47.769531 22.546875 -45.875 C 21.273438 -43.976562 20.332031 -41.867188 19.71875 -39.546875 C 19.101562 -37.234375 18.796875 -34.800781 18.796875 -32.25 Z M 18.796875 -32.25 "/></g></g><g style="fill:#000000;fill-opacity:1;"><g transform="translate(386.604794, 436.347107)"><path style="stroke:none" d="M 12.0625 -59.625 C 12.289062 -60.9375 13.023438 -61.941406 14.265625 -62.640625 C 15.503906 -63.335938 16.820312 -63.6875 18.21875 -63.6875 C 19.988281 -63.6875 21.414062 -63.222656 22.5 -62.296875 C 23.582031 -61.367188 24.125 -60.171875 24.125 -58.703125 C 24.125 -57.921875 24.023438 -57.023438 23.828125 -56.015625 C 23.640625 -55.015625 23.429688 -53.628906 23.203125 -51.859375 C 24.984375 -54.484375 26.859375 -56.664062 28.828125 -58.40625 C 30.796875 -60.144531 32.898438 -61.457031 35.140625 -62.34375 C 37.390625 -63.238281 39.710938 -63.6875 42.109375 -63.6875 C 44.273438 -63.6875 46.398438 -63.28125 48.484375 -62.46875 C 50.578125 -61.65625 52.472656 -60.359375 54.171875 -58.578125 C 55.867188 -56.796875 57.179688 -54.359375 58.109375 -51.265625 C 59.816406 -53.816406 61.75 -56.0625 63.90625 -58 C 66.070312 -59.9375 68.410156 -61.441406 70.921875 -62.515625 C 73.441406 -63.597656 76.054688 -64.140625 78.765625 -64.140625 C 82.785156 -64.140625 86.050781 -63.304688 88.5625 -61.640625 C 91.082031 -59.984375 93.078125 -57.722656 94.546875 -54.859375 C 96.015625 -52.003906 97.019531 -48.738281 97.5625 -45.0625 C 98.101562 -41.394531 98.375 -37.585938 98.375 -33.640625 C 98.375 -31.085938 98.3125 -28.785156 98.1875 -26.734375 C 98.070312 -24.679688 97.898438 -22.59375 97.671875 -20.46875 C 97.441406 -18.34375 97.191406 -16.0625 96.921875 -13.625 C 96.648438 -11.1875 96.359375 -8.347656 96.046875 -5.109375 C 95.734375 -3.242188 94.9375 -1.828125 93.65625 -0.859375 C 92.382812 0.0976562 90.976562 0.578125 89.4375 0.578125 C 86.957031 0.578125 85.234375 0.0546875 84.265625 -0.984375 C 83.304688 -2.023438 82.828125 -3.398438 82.828125 -5.109375 C 82.828125 -5.953125 82.941406 -7.242188 83.171875 -8.984375 C 83.398438 -10.722656 83.6875 -12.832031 84.03125 -15.3125 C 84.382812 -17.789062 84.675781 -20.535156 84.90625 -23.546875 C 85.144531 -26.566406 85.265625 -29.738281 85.265625 -33.0625 C 85.265625 -39.789062 84.566406 -44.601562 83.171875 -47.5 C 81.773438 -50.40625 79.570312 -51.859375 76.5625 -51.859375 C 75.007812 -51.859375 73.363281 -51.332031 71.625 -50.28125 C 69.882812 -49.238281 68.222656 -47.847656 66.640625 -46.109375 C 65.054688 -44.367188 63.703125 -42.394531 62.578125 -40.1875 C 61.460938 -37.988281 60.671875 -35.726562 60.203125 -33.40625 C 60.203125 -31.9375 60.160156 -30.660156 60.078125 -29.578125 C 60.003906 -28.492188 59.945312 -27.46875 59.90625 -26.5 C 59.875 -25.539062 59.816406 -24.519531 59.734375 -23.4375 C 59.660156 -21.1875 59.546875 -18.976562 59.390625 -16.8125 C 59.234375 -14.65625 59.078125 -12.53125 58.921875 -10.4375 C 58.773438 -8.351562 58.660156 -6.304688 58.578125 -4.296875 C 58.578125 -2.359375 57.992188 -0.941406 56.828125 -0.046875 C 55.671875 0.835938 54.015625 1.28125 51.859375 1.28125 C 49.847656 1.28125 48.257812 0.835938 47.09375 -0.046875 C 45.9375 -0.941406 45.359375 -2.4375 45.359375 -4.53125 C 45.429688 -7.769531 45.601562 -10.992188 45.875 -14.203125 C 46.144531 -17.421875 46.394531 -20.691406 46.625 -24.015625 C 46.863281 -27.335938 46.984375 -30.78125 46.984375 -34.34375 C 46.984375 -40.601562 46.398438 -45.066406 45.234375 -47.734375 C 44.078125 -50.398438 42.335938 -51.734375 40.015625 -51.734375 C 38.160156 -51.734375 36.207031 -51.035156 34.15625 -49.640625 C 32.113281 -48.253906 30.160156 -46.363281 28.296875 -43.96875 C 26.441406 -41.570312 24.78125 -38.828125 23.3125 -35.734375 C 23.15625 -31.859375 23 -27.988281 22.84375 -24.125 C 22.695312 -20.257812 22.5625 -16.625 22.4375 -13.21875 C 22.320312 -9.820312 22.191406 -6.847656 22.046875 -4.296875 C 21.890625 -2.359375 21.25 -0.941406 20.125 -0.046875 C 19 0.835938 17.472656 1.28125 15.546875 1.28125 C 13.453125 1.28125 11.765625 0.835938 10.484375 -0.046875 C 9.210938 -0.941406 8.617188 -2.4375 8.703125 -4.53125 C 8.929688 -9.550781 9.125 -14.691406 9.28125 -19.953125 C 9.4375 -25.210938 9.628906 -30.507812 9.859375 -35.84375 C 10.015625 -39.863281 10.242188 -43.863281 10.546875 -47.84375 C 10.859375 -51.832031 11.363281 -55.757812 12.0625 -59.625 Z M 12.0625 -59.625 "/></g></g><g style="fill:#000000;fill-opacity:1;"><g transform="translate(493.081463, 436.347107)"><path style="stroke:none" d="M 14.03125 32.9375 C 11.789062 32.9375 10.03125 32.492188 8.75 31.609375 C 7.476562 30.722656 6.878906 29.234375 6.953125 27.140625 C 7.191406 22.660156 7.425781 18.484375 7.65625 14.609375 C 7.882812 10.742188 8.078125 6.9375 8.234375 3.1875 C 8.390625 -0.5625 8.5625 -4.460938 8.75 -8.515625 C 8.945312 -12.578125 9.179688 -17.023438 9.453125 -21.859375 C 9.722656 -26.691406 9.992188 -32.125 10.265625 -38.15625 C 10.535156 -44.195312 10.863281 -51.046875 11.25 -58.703125 C 11.40625 -60.859375 12.253906 -62.363281 13.796875 -63.21875 C 15.347656 -64.070312 17.015625 -64.5 18.796875 -64.5 C 20.492188 -64.5 21.804688 -63.972656 22.734375 -62.921875 C 23.660156 -61.878906 24.125 -60.703125 24.125 -59.390625 C 24.125 -58.148438 24.101562 -56.929688 24.0625 -55.734375 C 24.03125 -54.535156 23.9375 -52.929688 23.78125 -50.921875 C 26.5625 -55.097656 29.671875 -58.226562 33.109375 -60.3125 C 36.554688 -62.40625 40.132812 -63.453125 43.84375 -63.453125 C 47.175781 -63.453125 50.15625 -62.640625 52.78125 -61.015625 C 55.40625 -59.390625 57.664062 -57.222656 59.5625 -54.515625 C 61.457031 -51.804688 62.90625 -48.75 63.90625 -45.34375 C 64.914062 -41.945312 65.421875 -38.394531 65.421875 -34.6875 C 65.421875 -29.882812 64.742188 -25.300781 63.390625 -20.9375 C 62.035156 -16.570312 60.117188 -12.707031 57.640625 -9.34375 C 55.171875 -5.976562 52.253906 -3.304688 48.890625 -1.328125 C 45.523438 0.640625 41.832031 1.625 37.8125 1.625 C 35.03125 1.625 32.285156 1.140625 29.578125 0.171875 C 26.867188 -0.796875 24.359375 -2.164062 22.046875 -3.9375 C 21.804688 1.625 21.570312 6.9375 21.34375 12 C 21.113281 17.070312 20.84375 22.234375 20.53125 27.484375 C 20.457031 29.265625 19.859375 30.617188 18.734375 31.546875 C 17.609375 32.472656 16.039062 32.9375 14.03125 32.9375 Z M 36.765625 -9.625 C 38.773438 -9.625 40.671875 -10.242188 42.453125 -11.484375 C 44.234375 -12.722656 45.816406 -14.425781 47.203125 -16.59375 C 48.597656 -18.757812 49.679688 -21.3125 50.453125 -24.25 C 51.234375 -27.1875 51.625 -30.316406 51.625 -33.640625 C 51.625 -36.191406 51.390625 -38.550781 50.921875 -40.71875 C 50.460938 -42.882812 49.765625 -44.757812 48.828125 -46.34375 C 47.898438 -47.925781 46.816406 -49.140625 45.578125 -49.984375 C 44.347656 -50.835938 42.921875 -51.265625 41.296875 -51.265625 C 39.671875 -51.265625 37.96875 -50.6875 36.1875 -49.53125 C 34.414062 -48.375 32.695312 -46.804688 31.03125 -44.828125 C 29.363281 -42.859375 27.851562 -40.632812 26.5 -38.15625 C 25.144531 -35.6875 24.046875 -33.140625 23.203125 -30.515625 C 23.117188 -27.960938 23.019531 -25.5625 22.90625 -23.3125 C 22.789062 -21.070312 22.695312 -18.640625 22.625 -16.015625 C 24.707031 -13.992188 27.023438 -12.421875 29.578125 -11.296875 C 32.128906 -10.179688 34.523438 -9.625 36.765625 -9.625 Z M 36.765625 -9.625 "/></g></g><g style="fill:#000000;fill-opacity:1;"><g transform="translate(563.833976, 436.347107)"><path style="stroke:none" d="M 14.609375 -74.59375 C 14.765625 -76.21875 15.363281 -77.453125 16.40625 -78.296875 C 17.457031 -79.148438 18.945312 -79.578125 20.875 -79.578125 C 22.113281 -79.578125 23.3125 -79.398438 24.46875 -79.046875 C 25.632812 -78.703125 26.5625 -78.125 27.25 -77.3125 C 27.945312 -76.5 28.222656 -75.4375 28.078125 -74.125 C 27.453125 -69.476562 26.925781 -64.910156 26.5 -60.421875 C 26.082031 -55.941406 25.753906 -51.457031 25.515625 -46.96875 C 25.285156 -42.488281 25.171875 -37.851562 25.171875 -33.0625 C 25.328125 -27.488281 25.617188 -23.097656 26.046875 -19.890625 C 26.472656 -16.679688 26.992188 -14.421875 27.609375 -13.109375 C 28.222656 -11.796875 28.765625 -11.140625 29.234375 -11.140625 C 29.929688 -11.140625 30.800781 -11.5625 31.84375 -12.40625 C 32.882812 -13.257812 33.890625 -14.207031 34.859375 -15.25 C 35.828125 -16.289062 36.539062 -17.082031 37 -17.625 C 37.46875 -18.164062 37.988281 -18.570312 38.5625 -18.84375 C 39.144531 -19.113281 39.785156 -19.25 40.484375 -19.25 C 41.410156 -19.25 42.335938 -18.976562 43.265625 -18.4375 C 44.191406 -17.894531 44.960938 -17.179688 45.578125 -16.296875 C 46.203125 -15.410156 46.515625 -14.425781 46.515625 -13.34375 C 46.515625 -12.800781 46.378906 -12.125 46.109375 -11.3125 C 45.835938 -10.5 45.160156 -9.515625 44.078125 -8.359375 C 42.378906 -6.347656 40.503906 -4.644531 38.453125 -3.25 C 36.398438 -1.851562 34.367188 -0.804688 32.359375 -0.109375 C 30.347656 0.578125 28.457031 0.921875 26.6875 0.921875 C 23.050781 0.921875 20.128906 -0.234375 17.921875 -2.546875 C 15.710938 -4.867188 14.144531 -8.347656 13.21875 -12.984375 C 12.675781 -16.390625 12.269531 -19.773438 12 -23.140625 C 11.726562 -26.503906 11.59375 -29.925781 11.59375 -33.40625 C 11.59375 -38.125 11.707031 -42.664062 11.9375 -47.03125 C 12.175781 -51.40625 12.523438 -55.832031 12.984375 -60.3125 C 13.453125 -64.800781 13.992188 -69.5625 14.609375 -74.59375 Z M 8.703125 -50.578125 C 7.234375 -50.492188 6.050781 -50.972656 5.15625 -52.015625 C 4.269531 -53.066406 3.828125 -54.441406 3.828125 -56.140625 C 3.828125 -57.691406 4.269531 -58.96875 5.15625 -59.96875 C 6.050781 -60.976562 7.234375 -61.519531 8.703125 -61.59375 C 10.710938 -61.75 12.953125 -61.882812 15.421875 -62 C 17.898438 -62.113281 20.492188 -62.191406 23.203125 -62.234375 C 25.910156 -62.273438 28.789062 -62.3125 31.84375 -62.34375 C 34.894531 -62.382812 38.007812 -62.40625 41.1875 -62.40625 C 42.5 -62.40625 43.65625 -61.898438 44.65625 -60.890625 C 45.664062 -59.890625 46.171875 -58.5 46.171875 -56.71875 C 46.171875 -55.019531 45.644531 -53.707031 44.59375 -52.78125 C 43.550781 -51.851562 42.414062 -51.390625 41.1875 -51.390625 C 37.9375 -51.390625 35.015625 -51.367188 32.421875 -51.328125 C 29.828125 -51.285156 27.332031 -51.242188 24.9375 -51.203125 C 22.539062 -51.171875 20.046875 -51.097656 17.453125 -50.984375 C 14.867188 -50.867188 11.953125 -50.734375 8.703125 -50.578125 Z M 8.703125 -50.578125 "/></g></g><g style="fill:#000000;fill-opacity:1;"><g transform="translate(613.940647, 436.347107)"><path style="stroke:none" d="M 15.65625 -3.015625 C 15.195312 -1.390625 14.367188 -0.191406 13.171875 0.578125 C 11.972656 1.347656 10.328125 1.734375 8.234375 1.734375 C 6.222656 1.734375 4.65625 1.226562 3.53125 0.21875 C 2.414062 -0.78125 1.859375 -1.972656 1.859375 -3.359375 C 1.859375 -4.054688 1.992188 -4.847656 2.265625 -5.734375 C 2.535156 -6.628906 2.941406 -7.8125 3.484375 -9.28125 C 6.109375 -16.007812 8.851562 -22.640625 11.71875 -29.171875 C 14.582031 -35.703125 17.519531 -42.195312 20.53125 -48.65625 C 23.550781 -55.113281 26.625 -61.515625 29.75 -67.859375 C 32.882812 -74.203125 35.957031 -80.546875 38.96875 -86.890625 C 39.75 -88.503906 40.753906 -89.679688 41.984375 -90.421875 C 43.222656 -91.160156 44.617188 -91.53125 46.171875 -91.53125 C 48.097656 -91.53125 49.796875 -91.082031 51.265625 -90.1875 C 52.734375 -89.300781 53.703125 -88.125 54.171875 -86.65625 C 54.554688 -85.800781 55.367188 -83.726562 56.609375 -80.4375 C 57.847656 -77.15625 59.351562 -73.097656 61.125 -68.265625 C 62.90625 -63.429688 64.835938 -58.210938 66.921875 -52.609375 C 69.015625 -47.003906 71.144531 -41.414062 73.3125 -35.84375 C 75.476562 -30.269531 77.507812 -25.125 79.40625 -20.40625 C 81.300781 -15.695312 82.90625 -11.832031 84.21875 -8.8125 C 84.675781 -8.039062 85.078125 -7.148438 85.421875 -6.140625 C 85.773438 -5.140625 85.953125 -4.332031 85.953125 -3.71875 C 85.953125 -2.007812 85.3125 -0.597656 84.03125 0.515625 C 82.757812 1.640625 81.195312 2.203125 79.34375 2.203125 C 78.101562 2.203125 76.863281 2.007812 75.625 1.625 C 74.394531 1.238281 73.46875 0.347656 72.84375 -1.046875 C 70.289062 -6.847656 67.773438 -13.070312 65.296875 -19.71875 C 62.828125 -26.375 60.429688 -33.046875 58.109375 -39.734375 C 55.796875 -46.421875 53.59375 -52.679688 51.5 -58.515625 C 49.414062 -64.359375 47.5625 -69.40625 45.9375 -73.65625 C 42.144531 -65.382812 38.453125 -57.242188 34.859375 -49.234375 C 31.265625 -41.234375 27.863281 -33.382812 24.65625 -25.6875 C 21.445312 -18 18.445312 -10.441406 15.65625 -3.015625 Z M 17.625 -32.484375 C 17.625 -33.796875 18.03125 -34.859375 18.84375 -35.671875 C 19.65625 -36.484375 20.601562 -37.097656 21.6875 -37.515625 C 22.769531 -37.941406 23.738281 -38.234375 24.59375 -38.390625 C 26.289062 -38.773438 28.550781 -39.125 31.375 -39.4375 C 34.195312 -39.75 37.503906 -39.941406 41.296875 -40.015625 C 45.085938 -40.097656 49.34375 -39.945312 54.0625 -39.5625 C 55.289062 -39.476562 56.71875 -39.472656 58.34375 -39.546875 C 59.96875 -39.628906 61.648438 -39.726562 63.390625 -39.84375 C 65.128906 -39.957031 66.710938 -40.09375 68.140625 -40.25 C 69.578125 -40.40625 70.722656 -40.5625 71.578125 -40.71875 C 73.347656 -40.945312 74.796875 -40.5 75.921875 -39.375 C 77.046875 -38.257812 77.609375 -36.8125 77.609375 -35.03125 C 77.609375 -33.40625 77.082031 -32.085938 76.03125 -31.078125 C 74.988281 -30.078125 73.632812 -29.304688 71.96875 -28.765625 C 70.3125 -28.222656 68.59375 -27.851562 66.8125 -27.65625 C 65.03125 -27.46875 63.40625 -27.375 61.9375 -27.375 C 57.53125 -27.375 53.179688 -27.375 48.890625 -27.375 C 44.597656 -27.375 40.34375 -27.257812 36.125 -27.03125 C 31.914062 -26.800781 27.644531 -26.414062 23.3125 -25.875 C 22.15625 -25.789062 20.914062 -26.441406 19.59375 -27.828125 C 18.28125 -29.222656 17.625 -30.773438 17.625 -32.484375 Z M 17.625 -32.484375 "/></g></g><g style="fill:#000000;fill-opacity:1;"><g transform="translate(703.59908, 436.347107)"><path style="stroke:none" d="M 10.5625 -57.765625 C 10.632812 -59.703125 11.289062 -61.132812 12.53125 -62.0625 C 13.769531 -62.988281 15.507812 -63.453125 17.75 -63.453125 C 19.675781 -63.453125 21.179688 -63.023438 22.265625 -62.171875 C 23.347656 -61.328125 23.890625 -60.128906 23.890625 -58.578125 C 23.890625 -58.117188 23.890625 -57.519531 23.890625 -56.78125 C 23.890625 -56.050781 23.867188 -55.257812 23.828125 -54.40625 C 23.796875 -53.550781 23.703125 -52.582031 23.546875 -51.5 C 25.710938 -55.363281 28.242188 -58.300781 31.140625 -60.3125 C 34.046875 -62.332031 37.316406 -63.34375 40.953125 -63.34375 C 42.492188 -63.34375 44.289062 -63.109375 46.34375 -62.640625 C 48.394531 -62.171875 50.5 -61.28125 52.65625 -59.96875 C 53.59375 -59.425781 54.332031 -58.691406 54.875 -57.765625 C 55.414062 -56.835938 55.566406 -55.5625 55.328125 -53.9375 C 55.171875 -51.925781 54.550781 -50.398438 53.46875 -49.359375 C 52.394531 -48.316406 51.082031 -47.796875 49.53125 -47.796875 C 48.757812 -47.796875 48.046875 -47.945312 47.390625 -48.25 C 46.734375 -48.5625 46.09375 -48.875 45.46875 -49.1875 C 44.625 -49.644531 43.753906 -50.066406 42.859375 -50.453125 C 41.972656 -50.847656 40.875 -51.046875 39.5625 -51.046875 C 35.226562 -51.046875 31.765625 -48.957031 29.171875 -44.78125 C 26.578125 -40.601562 24.472656 -35.265625 22.859375 -28.765625 C 22.773438 -26.140625 22.710938 -23.6875 22.671875 -21.40625 C 22.640625 -19.125 22.601562 -16.957031 22.5625 -14.90625 C 22.519531 -12.851562 22.476562 -10.914062 22.4375 -9.09375 C 22.40625 -7.28125 22.390625 -5.523438 22.390625 -3.828125 C 22.390625 -2.585938 22.039062 -1.582031 21.34375 -0.8125 C 20.644531 -0.0390625 19.789062 0.535156 18.78125 0.921875 C 17.78125 1.316406 16.816406 1.515625 15.890625 1.515625 C 13.722656 1.515625 12.097656 1.007812 11.015625 0 C 9.929688 -1.007812 9.21875 -2.34375 8.875 -4 C 8.53125 -5.664062 8.359375 -7.460938 8.359375 -9.390625 C 8.359375 -10.941406 8.414062 -12.875 8.53125 -15.1875 C 8.644531 -17.507812 8.796875 -19.832031 8.984375 -22.15625 C 9.179688 -24.476562 9.394531 -26.410156 9.625 -27.953125 Z M 10.5625 -57.765625 "/></g></g><g style="fill:#000000;fill-opacity:1;"><g transform="translate(759.853139, 436.347107)"><path style="stroke:none" d="M 14.609375 -74.59375 C 14.765625 -76.21875 15.363281 -77.453125 16.40625 -78.296875 C 17.457031 -79.148438 18.945312 -79.578125 20.875 -79.578125 C 22.113281 -79.578125 23.3125 -79.398438 24.46875 -79.046875 C 25.632812 -78.703125 26.5625 -78.125 27.25 -77.3125 C 27.945312 -76.5 28.222656 -75.4375 28.078125 -74.125 C 27.453125 -69.476562 26.925781 -64.910156 26.5 -60.421875 C 26.082031 -55.941406 25.753906 -51.457031 25.515625 -46.96875 C 25.285156 -42.488281 25.171875 -37.851562 25.171875 -33.0625 C 25.328125 -27.488281 25.617188 -23.097656 26.046875 -19.890625 C 26.472656 -16.679688 26.992188 -14.421875 27.609375 -13.109375 C 28.222656 -11.796875 28.765625 -11.140625 29.234375 -11.140625 C 29.929688 -11.140625 30.800781 -11.5625 31.84375 -12.40625 C 32.882812 -13.257812 33.890625 -14.207031 34.859375 -15.25 C 35.828125 -16.289062 36.539062 -17.082031 37 -17.625 C 37.46875 -18.164062 37.988281 -18.570312 38.5625 -18.84375 C 39.144531 -19.113281 39.785156 -19.25 40.484375 -19.25 C 41.410156 -19.25 42.335938 -18.976562 43.265625 -18.4375 C 44.191406 -17.894531 44.960938 -17.179688 45.578125 -16.296875 C 46.203125 -15.410156 46.515625 -14.425781 46.515625 -13.34375 C 46.515625 -12.800781 46.378906 -12.125 46.109375 -11.3125 C 45.835938 -10.5 45.160156 -9.515625 44.078125 -8.359375 C 42.378906 -6.347656 40.503906 -4.644531 38.453125 -3.25 C 36.398438 -1.851562 34.367188 -0.804688 32.359375 -0.109375 C 30.347656 0.578125 28.457031 0.921875 26.6875 0.921875 C 23.050781 0.921875 20.128906 -0.234375 17.921875 -2.546875 C 15.710938 -4.867188 14.144531 -8.347656 13.21875 -12.984375 C 12.675781 -16.390625 12.269531 -19.773438 12 -23.140625 C 11.726562 -26.503906 11.59375 -29.925781 11.59375 -33.40625 C 11.59375 -38.125 11.707031 -42.664062 11.9375 -47.03125 C 12.175781 -51.40625 12.523438 -55.832031 12.984375 -60.3125 C 13.453125 -64.800781 13.992188 -69.5625 14.609375 -74.59375 Z M 8.703125 -50.578125 C 7.234375 -50.492188 6.050781 -50.972656 5.15625 -52.015625 C 4.269531 -53.066406 3.828125 -54.441406 3.828125 -56.140625 C 3.828125 -57.691406 4.269531 -58.96875 5.15625 -59.96875 C 6.050781 -60.976562 7.234375 -61.519531 8.703125 -61.59375 C 10.710938 -61.75 12.953125 -61.882812 15.421875 -62 C 17.898438 -62.113281 20.492188 -62.191406 23.203125 -62.234375 C 25.910156 -62.273438 28.789062 -62.3125 31.84375 -62.34375 C 34.894531 -62.382812 38.007812 -62.40625 41.1875 -62.40625 C 42.5 -62.40625 43.65625 -61.898438 44.65625 -60.890625 C 45.664062 -59.890625 46.171875 -58.5 46.171875 -56.71875 C 46.171875 -55.019531 45.644531 -53.707031 44.59375 -52.78125 C 43.550781 -51.851562 42.414062 -51.390625 41.1875 -51.390625 C 37.9375 -51.390625 35.015625 -51.367188 32.421875 -51.328125 C 29.828125 -51.285156 27.332031 -51.242188 24.9375 -51.203125 C 22.539062 -51.171875 20.046875 -51.097656 17.453125 -50.984375 C 14.867188 -50.867188 11.953125 -50.734375 8.703125 -50.578125 Z M 8.703125 -50.578125 "/></g></g></g></svg>