<svg xmlns="http://www.w3.org/2000/svg" xmlns:xlink="http://www.w3.org/1999/xlink" width="1080" zoomAndPan="magnify" viewBox="0 0 810 809.999993" height="1080" preserveAspectRatio="xMidYMid meet" version="1.2"><defs/><g id="c082e45ffa"><path style=" stroke:none;fill-rule:evenodd;fill:#03a9f4;fill-opacity:1;" d="M 159.132812 111.40625 C 158.003906 138.695312 137.667969 161.015625 111.539062 165.476562 L 111.539062 169.898438 C 111.539062 186.742188 97.804688 200.476562 80.957031 200.476562 C 64.113281 200.476562 50.378906 186.742188 50.378906 169.898438 L 50.378906 165.476562 C 24.246094 161.015625 3.910156 138.699219 2.785156 111.40625 C 1.742188 86.210938 2.730469 60.292969 2.730469 34.503906 C 2.730469 16.902344 17.082031 2.550781 34.683594 2.550781 L 127.234375 2.550781 C 144.835938 2.550781 159.183594 16.902344 159.183594 34.503906 C 159.183594 60.292969 160.171875 86.210938 159.132812 111.40625 Z M 159.132812 111.40625 "/><path style=" stroke:none;fill-rule:evenodd;fill:#ffff66;fill-opacity:1;" d="M 34.683594 17.113281 L 127.234375 17.113281 C 136.796875 17.113281 144.621094 24.9375 144.621094 34.503906 L 144.621094 93.214844 L 17.292969 93.214844 L 17.292969 34.503906 C 17.292969 24.9375 25.117188 17.113281 34.683594 17.113281 Z M 96.976562 151.722656 L 96.976562 169.898438 C 96.976562 178.707031 89.769531 185.914062 80.957031 185.914062 C 72.148438 185.914062 64.941406 178.707031 64.941406 169.898438 L 64.941406 151.722656 L 59.984375 151.722656 C 37.097656 151.722656 18.269531 133.472656 17.332031 110.804688 L 144.582031 110.804688 C 143.648438 133.472656 124.820312 151.722656 101.933594 151.722656 Z M 80.957031 162.148438 C 85.011719 162.148438 88.296875 165.4375 88.296875 169.488281 C 88.296875 173.542969 85.011719 176.828125 80.957031 176.828125 C 76.90625 176.828125 73.621094 173.542969 73.621094 169.488281 C 73.621094 165.4375 76.90625 162.148438 80.957031 162.148438 Z M 80.957031 162.148438 "/><path style=" stroke:none;fill-rule:evenodd;fill:#4fc3f7;fill-opacity:1;" d="M 17.292969 57.765625 C 22.074219 58.574219 27 58.941406 32.632812 57.1875 C 39.738281 54.976562 47.972656 49.382812 55.117188 49.34375 C 62.261719 49.304688 68.320312 54.820312 74.570312 58.003906 C 80.824219 61.1875 87.269531 62.042969 93.441406 58.390625 C 99.617188 54.742188 105.519531 46.585938 111.886719 44.917969 C 118.257812 43.25 125.089844 48.0625 132.742188 53.65625 C 136.535156 56.429688 140.527344 59.390625 144.625 62.453125 L 144.625 34.503906 C 144.625 24.9375 136.796875 17.113281 127.234375 17.113281 L 34.683594 17.113281 C 25.117188 17.113281 17.292969 24.941406 17.292969 34.503906 Z M 17.292969 57.765625 "/><g style="fill:#000000;fill-opacity:0.4;"><g transform="translate(177.422192, 138.7267)"><path style="stroke:none" d="M 13.625 -88.296875 C 13.789062 -89.660156 14.253906 -90.785156 15.015625 -91.671875 C 15.773438 -92.554688 17.285156 -93.160156 19.546875 -93.484375 C 20.671875 -93.640625 22.054688 -93.78125 23.703125 -93.90625 C 25.347656 -94.03125 27.054688 -94.109375 28.828125 -94.140625 C 30.597656 -94.179688 32.207031 -94.203125 33.65625 -94.203125 C 41.050781 -94.203125 47.625 -93.078125 53.375 -90.828125 C 59.125 -88.578125 63.644531 -85.300781 66.9375 -81 C 70.238281 -76.695312 71.890625 -71.453125 71.890625 -65.265625 C 71.890625 -60.515625 70.785156 -56.367188 68.578125 -52.828125 C 66.367188 -49.296875 63.394531 -46.34375 59.65625 -43.96875 C 55.914062 -41.59375 51.8125 -39.820312 47.34375 -38.65625 C 42.882812 -37.488281 38.363281 -36.90625 33.78125 -36.90625 C 32.164062 -36.90625 30.632812 -36.960938 29.1875 -37.078125 C 27.738281 -37.203125 26.332031 -37.390625 24.96875 -37.640625 C 24.726562 -31.929688 24.503906 -26.257812 24.296875 -20.625 C 24.097656 -15 23.835938 -9.332031 23.515625 -3.625 C 23.441406 -1.6875 22.695312 -0.296875 21.28125 0.546875 C 19.875 1.390625 18.207031 1.8125 16.28125 1.8125 C 14.03125 1.8125 12.320312 1.328125 11.15625 0.359375 C 9.988281 -0.597656 9.445312 -2.046875 9.53125 -3.984375 C 10.414062 -17.972656 11 -32.039062 11.28125 -46.1875 C 11.5625 -60.34375 12.34375 -74.378906 13.625 -88.296875 Z M 25.578125 -49.328125 C 26.941406 -49.171875 28.304688 -48.988281 29.671875 -48.78125 C 31.035156 -48.582031 32.644531 -48.484375 34.5 -48.484375 C 37.070312 -48.484375 39.703125 -48.828125 42.390625 -49.515625 C 45.085938 -50.203125 47.582031 -51.269531 49.875 -52.71875 C 52.164062 -54.164062 54.015625 -55.992188 55.421875 -58.203125 C 56.828125 -60.410156 57.53125 -63.003906 57.53125 -65.984375 C 57.53125 -67.828125 57.128906 -69.734375 56.328125 -71.703125 C 55.523438 -73.679688 54.195312 -75.472656 52.34375 -77.078125 C 50.5 -78.679688 48.128906 -79.984375 45.234375 -80.984375 C 42.335938 -81.992188 38.757812 -82.5 34.5 -82.5 C 32.96875 -82.5 31.617188 -82.4375 30.453125 -82.3125 C 29.285156 -82.195312 28.222656 -82.0625 27.265625 -81.90625 C 27.023438 -78.445312 26.800781 -74.96875 26.59375 -71.46875 C 26.394531 -67.96875 26.210938 -64.40625 26.046875 -60.78125 C 25.890625 -57.164062 25.734375 -53.347656 25.578125 -49.328125 Z M 25.578125 -49.328125 "/></g></g><g style="fill:#000000;fill-opacity:0.4;"><g transform="translate(250.038911, 138.7267)"><path style="stroke:none" d="M 10.984375 -60.078125 C 11.054688 -62.085938 11.734375 -63.570312 13.015625 -64.53125 C 14.304688 -65.5 16.117188 -65.984375 18.453125 -65.984375 C 20.460938 -65.984375 22.03125 -65.539062 23.15625 -64.65625 C 24.28125 -63.769531 24.84375 -62.523438 24.84375 -60.921875 C 24.84375 -60.429688 24.84375 -59.804688 24.84375 -59.046875 C 24.84375 -58.285156 24.820312 -57.460938 24.78125 -56.578125 C 24.75 -55.691406 24.648438 -54.6875 24.484375 -53.5625 C 26.734375 -57.582031 29.363281 -60.632812 32.375 -62.71875 C 35.394531 -64.8125 38.796875 -65.859375 42.578125 -65.859375 C 44.191406 -65.859375 46.0625 -65.613281 48.1875 -65.125 C 50.320312 -64.644531 52.515625 -63.722656 54.765625 -62.359375 C 55.734375 -61.796875 56.5 -61.03125 57.0625 -60.0625 C 57.625 -59.101562 57.78125 -57.78125 57.53125 -56.09375 C 57.375 -54 56.734375 -52.410156 55.609375 -51.328125 C 54.484375 -50.242188 53.113281 -49.703125 51.5 -49.703125 C 50.695312 -49.703125 49.953125 -49.859375 49.265625 -50.171875 C 48.585938 -50.492188 47.925781 -50.816406 47.28125 -51.140625 C 46.394531 -51.628906 45.488281 -52.070312 44.5625 -52.46875 C 43.644531 -52.875 42.503906 -53.078125 41.140625 -53.078125 C 36.628906 -53.078125 33.023438 -50.90625 30.328125 -46.5625 C 27.640625 -42.21875 25.453125 -36.671875 23.765625 -29.921875 C 23.679688 -27.179688 23.617188 -24.625 23.578125 -22.25 C 23.535156 -19.882812 23.492188 -17.632812 23.453125 -15.5 C 23.421875 -13.363281 23.382812 -11.351562 23.34375 -9.46875 C 23.300781 -7.582031 23.28125 -5.753906 23.28125 -3.984375 C 23.28125 -2.691406 22.914062 -1.644531 22.1875 -0.84375 C 21.46875 -0.0390625 20.582031 0.554688 19.53125 0.953125 C 18.488281 1.359375 17.488281 1.5625 16.53125 1.5625 C 14.269531 1.5625 12.578125 1.039062 11.453125 0 C 10.328125 -1.039062 9.582031 -2.425781 9.21875 -4.15625 C 8.863281 -5.882812 8.6875 -7.753906 8.6875 -9.765625 C 8.6875 -11.378906 8.742188 -13.390625 8.859375 -15.796875 C 8.984375 -18.210938 9.144531 -20.625 9.34375 -23.03125 C 9.550781 -25.445312 9.773438 -27.460938 10.015625 -29.078125 Z M 10.984375 -60.078125 "/></g></g><g style="fill:#000000;fill-opacity:0.4;"><g transform="translate(306.733084, 138.7267)"><path style="stroke:none" d="M 35.828125 -66.109375 C 37.671875 -66.109375 39.640625 -65.925781 41.734375 -65.5625 C 43.828125 -65.195312 45.796875 -64.671875 47.640625 -63.984375 C 49.492188 -63.304688 50.984375 -62.441406 52.109375 -61.390625 C 55.804688 -58.421875 58.539062 -54.539062 60.3125 -49.75 C 62.082031 -44.96875 62.96875 -39.925781 62.96875 -34.625 C 62.96875 -30.195312 62.382812 -25.910156 61.21875 -21.765625 C 60.050781 -17.628906 58.34375 -13.867188 56.09375 -10.484375 C 53.84375 -7.109375 51.023438 -4.4375 47.640625 -2.46875 C 44.265625 -0.5 40.40625 0.484375 36.0625 0.484375 C 31.40625 0.484375 27.207031 -0.398438 23.46875 -2.171875 C 19.726562 -3.941406 16.507812 -6.351562 13.8125 -9.40625 C 11.113281 -12.46875 9.0625 -16.007812 7.65625 -20.03125 C 6.25 -24.050781 5.546875 -28.269531 5.546875 -32.6875 C 5.546875 -36.945312 6.164062 -41.066406 7.40625 -45.046875 C 8.65625 -49.035156 10.566406 -52.613281 13.140625 -55.78125 C 15.722656 -58.957031 18.898438 -61.472656 22.671875 -63.328125 C 26.453125 -65.179688 30.835938 -66.109375 35.828125 -66.109375 Z M 19.546875 -33.53125 C 19.546875 -29.832031 20.144531 -26.296875 21.34375 -22.921875 C 22.550781 -19.546875 24.359375 -16.8125 26.765625 -14.71875 C 29.179688 -12.625 32.117188 -11.578125 35.578125 -11.578125 C 37.910156 -11.578125 39.941406 -12.238281 41.671875 -13.5625 C 43.398438 -14.894531 44.804688 -16.6875 45.890625 -18.9375 C 46.984375 -21.1875 47.769531 -23.617188 48.25 -26.234375 C 48.726562 -28.847656 48.96875 -31.398438 48.96875 -33.890625 C 48.96875 -38.722656 48.265625 -42.722656 46.859375 -45.890625 C 45.453125 -49.066406 43.503906 -51.503906 41.015625 -53.203125 C 40.046875 -53.515625 39.117188 -53.710938 38.234375 -53.796875 C 37.347656 -53.878906 36.425781 -53.921875 35.46875 -53.921875 C 32.8125 -53.921875 30.476562 -53.375 28.46875 -52.28125 C 26.457031 -51.195312 24.785156 -49.671875 23.453125 -47.703125 C 22.128906 -45.734375 21.144531 -43.539062 20.5 -41.125 C 19.863281 -38.71875 19.546875 -36.1875 19.546875 -33.53125 Z M 19.546875 -33.53125 "/></g></g><g style="fill:#000000;fill-opacity:0.4;"><g transform="translate(375.007428, 138.7267)"><path style="stroke:none" d="M 12.546875 -62 C 12.785156 -63.363281 13.546875 -64.40625 14.828125 -65.125 C 16.117188 -65.851562 17.488281 -66.21875 18.9375 -66.21875 C 20.789062 -66.21875 22.28125 -65.734375 23.40625 -64.765625 C 24.53125 -63.804688 25.09375 -62.5625 25.09375 -61.03125 C 25.09375 -60.226562 24.988281 -59.300781 24.78125 -58.25 C 24.582031 -57.207031 24.363281 -55.765625 24.125 -53.921875 C 25.976562 -56.648438 27.925781 -58.921875 29.96875 -60.734375 C 32.019531 -62.546875 34.210938 -63.910156 36.546875 -64.828125 C 38.878906 -65.753906 41.289062 -66.21875 43.78125 -66.21875 C 46.039062 -66.21875 48.253906 -65.796875 50.421875 -64.953125 C 52.585938 -64.109375 54.554688 -62.757812 56.328125 -60.90625 C 58.097656 -59.0625 59.46875 -56.53125 60.4375 -53.3125 C 62.207031 -55.96875 64.21875 -58.300781 66.46875 -60.3125 C 68.71875 -62.320312 71.148438 -63.890625 73.765625 -65.015625 C 76.378906 -66.140625 79.09375 -66.703125 81.90625 -66.703125 C 86.082031 -66.703125 89.476562 -65.835938 92.09375 -64.109375 C 94.707031 -62.378906 96.773438 -60.023438 98.296875 -57.046875 C 99.828125 -54.078125 100.875 -50.679688 101.4375 -46.859375 C 102.007812 -43.046875 102.296875 -39.085938 102.296875 -34.984375 C 102.296875 -32.328125 102.234375 -29.929688 102.109375 -27.796875 C 101.984375 -25.671875 101.800781 -23.5 101.5625 -21.28125 C 101.320312 -19.070312 101.0625 -16.703125 100.78125 -14.171875 C 100.5 -11.640625 100.195312 -8.6875 99.875 -5.3125 C 99.550781 -3.375 98.726562 -1.898438 97.40625 -0.890625 C 96.082031 0.109375 94.613281 0.609375 93 0.609375 C 90.425781 0.609375 88.632812 0.0664062 87.625 -1.015625 C 86.625 -2.109375 86.125 -3.539062 86.125 -5.3125 C 86.125 -6.195312 86.242188 -7.539062 86.484375 -9.34375 C 86.722656 -11.15625 87.023438 -13.347656 87.390625 -15.921875 C 87.753906 -18.492188 88.054688 -21.347656 88.296875 -24.484375 C 88.535156 -27.617188 88.65625 -30.914062 88.65625 -34.375 C 88.65625 -41.375 87.929688 -46.378906 86.484375 -49.390625 C 85.035156 -52.410156 82.742188 -53.921875 79.609375 -53.921875 C 78.003906 -53.921875 76.296875 -53.375 74.484375 -52.28125 C 72.671875 -51.195312 70.941406 -49.75 69.296875 -47.9375 C 67.648438 -46.132812 66.242188 -44.085938 65.078125 -41.796875 C 63.910156 -39.503906 63.085938 -37.148438 62.609375 -34.734375 C 62.609375 -33.210938 62.566406 -31.890625 62.484375 -30.765625 C 62.398438 -29.640625 62.335938 -28.570312 62.296875 -27.5625 C 62.265625 -26.5625 62.207031 -25.492188 62.125 -24.359375 C 62.039062 -22.035156 61.914062 -19.742188 61.75 -17.484375 C 61.59375 -15.234375 61.429688 -13.019531 61.265625 -10.84375 C 61.109375 -8.675781 60.992188 -6.550781 60.921875 -4.46875 C 60.921875 -2.457031 60.316406 -0.988281 59.109375 -0.0625 C 57.898438 0.863281 56.171875 1.328125 53.921875 1.328125 C 51.828125 1.328125 50.175781 0.863281 48.96875 -0.0625 C 47.769531 -0.988281 47.171875 -2.535156 47.171875 -4.703125 C 47.242188 -8.078125 47.421875 -11.429688 47.703125 -14.765625 C 47.984375 -18.109375 48.242188 -21.507812 48.484375 -24.96875 C 48.734375 -28.425781 48.859375 -32.003906 48.859375 -35.703125 C 48.859375 -42.210938 48.253906 -46.851562 47.046875 -49.625 C 45.835938 -52.40625 44.023438 -53.796875 41.609375 -53.796875 C 39.679688 -53.796875 37.648438 -53.070312 35.515625 -51.625 C 33.390625 -50.175781 31.359375 -48.207031 29.421875 -45.71875 C 27.492188 -43.226562 25.769531 -40.375 24.25 -37.15625 C 24.082031 -33.132812 23.914062 -29.113281 23.75 -25.09375 C 23.59375 -21.070312 23.453125 -17.289062 23.328125 -13.75 C 23.210938 -10.207031 23.078125 -7.113281 22.921875 -4.46875 C 22.753906 -2.457031 22.085938 -0.988281 20.921875 -0.0625 C 19.753906 0.863281 18.164062 1.328125 16.15625 1.328125 C 13.988281 1.328125 12.238281 0.863281 10.90625 -0.0625 C 9.582031 -0.988281 8.960938 -2.535156 9.046875 -4.703125 C 9.285156 -9.929688 9.484375 -15.28125 9.640625 -20.75 C 9.804688 -26.21875 10.007812 -31.722656 10.25 -37.265625 C 10.414062 -41.453125 10.65625 -45.613281 10.96875 -49.75 C 11.289062 -53.894531 11.816406 -57.976562 12.546875 -62 Z M 12.546875 -62 "/></g></g><g style="fill:#000000;fill-opacity:0.4;"><g transform="translate(485.742138, 138.7267)"><path style="stroke:none" d="M 14.59375 34.25 C 12.257812 34.25 10.425781 33.785156 9.09375 32.859375 C 7.769531 31.941406 7.148438 30.394531 7.234375 28.21875 C 7.472656 23.5625 7.710938 19.222656 7.953125 15.203125 C 8.203125 11.179688 8.40625 7.21875 8.5625 3.3125 C 8.726562 -0.582031 8.910156 -4.640625 9.109375 -8.859375 C 9.304688 -13.085938 9.546875 -17.710938 9.828125 -22.734375 C 10.109375 -27.765625 10.390625 -33.414062 10.671875 -39.6875 C 10.953125 -45.957031 11.296875 -53.070312 11.703125 -61.03125 C 11.859375 -63.28125 12.738281 -64.847656 14.34375 -65.734375 C 15.957031 -66.617188 17.691406 -67.0625 19.546875 -67.0625 C 21.304688 -67.0625 22.671875 -66.519531 23.640625 -65.4375 C 24.609375 -64.351562 25.09375 -63.128906 25.09375 -61.765625 C 25.09375 -60.472656 25.070312 -59.203125 25.03125 -57.953125 C 24.988281 -56.710938 24.890625 -55.046875 24.734375 -52.953125 C 27.628906 -57.296875 30.863281 -60.550781 34.4375 -62.71875 C 38.019531 -64.894531 41.738281 -65.984375 45.59375 -65.984375 C 49.050781 -65.984375 52.144531 -65.140625 54.875 -63.453125 C 57.613281 -61.765625 59.96875 -59.507812 61.9375 -56.6875 C 63.90625 -53.875 65.410156 -50.695312 66.453125 -47.15625 C 67.503906 -43.625 68.03125 -39.925781 68.03125 -36.0625 C 68.03125 -31.082031 67.328125 -26.316406 65.921875 -21.765625 C 64.515625 -17.222656 62.523438 -13.203125 59.953125 -9.703125 C 57.378906 -6.210938 54.34375 -3.441406 50.84375 -1.390625 C 47.34375 0.660156 43.503906 1.6875 39.328125 1.6875 C 36.429688 1.6875 33.570312 1.179688 30.75 0.171875 C 27.9375 -0.828125 25.328125 -2.25 22.921875 -4.09375 C 22.679688 1.6875 22.4375 7.210938 22.1875 12.484375 C 21.945312 17.753906 21.664062 23.125 21.34375 28.59375 C 21.269531 30.4375 20.648438 31.835938 19.484375 32.796875 C 18.316406 33.765625 16.6875 34.25 14.59375 34.25 Z M 38.234375 -10.015625 C 40.328125 -10.015625 42.296875 -10.65625 44.140625 -11.9375 C 45.992188 -13.226562 47.644531 -15 49.09375 -17.25 C 50.539062 -19.5 51.664062 -22.148438 52.46875 -25.203125 C 53.269531 -28.265625 53.671875 -31.523438 53.671875 -34.984375 C 53.671875 -37.640625 53.429688 -40.09375 52.953125 -42.34375 C 52.472656 -44.59375 51.75 -46.539062 50.78125 -48.1875 C 49.8125 -49.832031 48.679688 -51.097656 47.390625 -51.984375 C 46.109375 -52.867188 44.625 -53.3125 42.9375 -53.3125 C 41.25 -53.3125 39.476562 -52.707031 37.625 -51.5 C 35.78125 -50.300781 33.992188 -48.675781 32.265625 -46.625 C 30.535156 -44.570312 28.96875 -42.257812 27.5625 -39.6875 C 26.15625 -37.113281 25.007812 -34.457031 24.125 -31.71875 C 24.039062 -29.070312 23.9375 -26.582031 23.8125 -24.25 C 23.695312 -21.914062 23.597656 -19.378906 23.515625 -16.640625 C 25.691406 -14.554688 28.101562 -12.929688 30.75 -11.765625 C 33.40625 -10.597656 35.898438 -10.015625 38.234375 -10.015625 Z M 38.234375 -10.015625 "/></g></g><g style="fill:#000000;fill-opacity:0.4;"><g transform="translate(559.324039, 138.7267)"><path style="stroke:none" d="M 15.203125 -77.5625 C 15.359375 -79.25 15.976562 -80.535156 17.0625 -81.421875 C 18.15625 -82.304688 19.707031 -82.75 21.71875 -82.75 C 23 -82.75 24.242188 -82.566406 25.453125 -82.203125 C 26.660156 -81.835938 27.625 -81.234375 28.34375 -80.390625 C 29.070312 -79.546875 29.351562 -78.441406 29.1875 -77.078125 C 28.539062 -72.253906 28 -67.507812 27.5625 -62.84375 C 27.125 -58.175781 26.78125 -53.507812 26.53125 -48.84375 C 26.289062 -44.1875 26.171875 -39.363281 26.171875 -34.375 C 26.335938 -28.582031 26.640625 -24.019531 27.078125 -20.6875 C 27.523438 -17.351562 28.066406 -15 28.703125 -13.625 C 29.347656 -12.257812 29.910156 -11.578125 30.390625 -11.578125 C 31.117188 -11.578125 32.023438 -12.019531 33.109375 -12.90625 C 34.191406 -13.789062 35.234375 -14.773438 36.234375 -15.859375 C 37.242188 -16.941406 37.992188 -17.765625 38.484375 -18.328125 C 38.960938 -18.890625 39.503906 -19.3125 40.109375 -19.59375 C 40.710938 -19.882812 41.375 -20.03125 42.09375 -20.03125 C 43.0625 -20.03125 44.023438 -19.742188 44.984375 -19.171875 C 45.953125 -18.609375 46.757812 -17.863281 47.40625 -16.9375 C 48.050781 -16.019531 48.375 -15 48.375 -13.875 C 48.375 -13.3125 48.234375 -12.609375 47.953125 -11.765625 C 47.671875 -10.921875 46.96875 -9.894531 45.84375 -8.6875 C 44.070312 -6.59375 42.117188 -4.820312 39.984375 -3.375 C 37.859375 -1.925781 35.75 -0.835938 33.65625 -0.109375 C 31.5625 0.609375 29.59375 0.96875 27.75 0.96875 C 23.96875 0.96875 20.929688 -0.234375 18.640625 -2.640625 C 16.347656 -5.054688 14.71875 -8.679688 13.75 -13.515625 C 13.1875 -17.046875 12.765625 -20.5625 12.484375 -24.0625 C 12.203125 -27.5625 12.0625 -31.117188 12.0625 -34.734375 C 12.0625 -39.640625 12.179688 -44.363281 12.421875 -48.90625 C 12.660156 -53.457031 13.019531 -58.0625 13.5 -62.71875 C 13.988281 -67.382812 14.554688 -72.332031 15.203125 -77.5625 Z M 9.046875 -52.59375 C 7.515625 -52.507812 6.285156 -53.007812 5.359375 -54.09375 C 4.441406 -55.1875 3.984375 -56.613281 3.984375 -58.375 C 3.984375 -59.988281 4.441406 -61.316406 5.359375 -62.359375 C 6.285156 -63.410156 7.515625 -63.972656 9.046875 -64.046875 C 11.140625 -64.210938 13.472656 -64.351562 16.046875 -64.46875 C 18.617188 -64.59375 21.3125 -64.675781 24.125 -64.71875 C 26.9375 -64.757812 29.929688 -64.796875 33.109375 -64.828125 C 36.285156 -64.867188 39.523438 -64.890625 42.828125 -64.890625 C 44.191406 -64.890625 45.394531 -64.367188 46.4375 -63.328125 C 47.488281 -62.285156 48.015625 -60.835938 48.015625 -58.984375 C 48.015625 -57.210938 47.46875 -55.84375 46.375 -54.875 C 45.289062 -53.914062 44.109375 -53.4375 42.828125 -53.4375 C 39.441406 -53.4375 36.398438 -53.414062 33.703125 -53.375 C 31.015625 -53.332031 28.421875 -53.289062 25.921875 -53.25 C 23.429688 -53.21875 20.835938 -53.140625 18.140625 -53.015625 C 15.453125 -52.890625 12.421875 -52.75 9.046875 -52.59375 Z M 9.046875 -52.59375 "/></g></g><g style="fill:#000000;fill-opacity:0.4;"><g transform="translate(611.434481, 138.7267)"><path style="stroke:none" d="M 16.28125 -3.140625 C 15.800781 -1.453125 14.9375 -0.207031 13.6875 0.59375 C 12.445312 1.40625 10.738281 1.8125 8.5625 1.8125 C 6.46875 1.8125 4.835938 1.285156 3.671875 0.234375 C 2.515625 -0.804688 1.9375 -2.050781 1.9375 -3.5 C 1.9375 -4.21875 2.078125 -5.039062 2.359375 -5.96875 C 2.640625 -6.894531 3.0625 -8.125 3.625 -9.65625 C 6.351562 -16.644531 9.203125 -23.535156 12.171875 -30.328125 C 15.148438 -37.128906 18.207031 -43.882812 21.34375 -50.59375 C 24.488281 -57.3125 27.6875 -63.96875 30.9375 -70.5625 C 34.195312 -77.15625 37.394531 -83.75 40.53125 -90.34375 C 41.332031 -92.03125 42.375 -93.253906 43.65625 -94.015625 C 44.945312 -94.785156 46.398438 -95.171875 48.015625 -95.171875 C 50.023438 -95.171875 51.789062 -94.707031 53.3125 -93.78125 C 54.84375 -92.863281 55.847656 -91.640625 56.328125 -90.109375 C 56.734375 -89.222656 57.578125 -87.070312 58.859375 -83.65625 C 60.148438 -80.238281 61.71875 -76.015625 63.5625 -70.984375 C 65.414062 -65.960938 67.425781 -60.535156 69.59375 -54.703125 C 71.769531 -48.867188 73.984375 -43.054688 76.234375 -37.265625 C 78.484375 -31.484375 80.59375 -26.140625 82.5625 -21.234375 C 84.53125 -16.328125 86.203125 -12.304688 87.578125 -9.171875 C 88.054688 -8.367188 88.476562 -7.441406 88.84375 -6.390625 C 89.207031 -5.347656 89.390625 -4.503906 89.390625 -3.859375 C 89.390625 -2.085938 88.722656 -0.617188 87.390625 0.546875 C 86.066406 1.710938 84.4375 2.296875 82.5 2.296875 C 81.21875 2.296875 79.929688 2.09375 78.640625 1.6875 C 77.359375 1.28125 76.394531 0.359375 75.75 -1.078125 C 73.09375 -7.109375 70.476562 -13.582031 67.90625 -20.5 C 65.332031 -27.414062 62.835938 -34.351562 60.421875 -41.3125 C 58.015625 -48.269531 55.722656 -54.785156 53.546875 -60.859375 C 51.378906 -66.929688 49.453125 -72.175781 47.765625 -76.59375 C 43.828125 -67.988281 39.988281 -59.523438 36.25 -51.203125 C 32.507812 -42.878906 28.96875 -34.71875 25.625 -26.71875 C 22.289062 -18.71875 19.175781 -10.859375 16.28125 -3.140625 Z M 18.328125 -33.78125 C 18.328125 -35.144531 18.75 -36.25 19.59375 -37.09375 C 20.445312 -37.9375 21.4375 -38.578125 22.5625 -39.015625 C 23.6875 -39.460938 24.691406 -39.765625 25.578125 -39.921875 C 27.335938 -40.328125 29.6875 -40.691406 32.625 -41.015625 C 35.5625 -41.335938 39 -41.535156 42.9375 -41.609375 C 46.882812 -41.691406 51.3125 -41.535156 56.21875 -41.140625 C 57.5 -41.054688 58.984375 -41.050781 60.671875 -41.125 C 62.359375 -41.207031 64.109375 -41.304688 65.921875 -41.421875 C 67.734375 -41.546875 69.378906 -41.6875 70.859375 -41.84375 C 72.347656 -42.007812 73.535156 -42.175781 74.421875 -42.34375 C 76.273438 -42.582031 77.785156 -42.117188 78.953125 -40.953125 C 80.117188 -39.785156 80.703125 -38.273438 80.703125 -36.421875 C 80.703125 -34.734375 80.15625 -33.367188 79.0625 -32.328125 C 77.976562 -31.285156 76.570312 -30.484375 74.84375 -29.921875 C 73.113281 -29.359375 71.320312 -28.972656 69.46875 -28.765625 C 67.625 -28.566406 65.9375 -28.46875 64.40625 -28.46875 C 59.820312 -28.46875 55.300781 -28.46875 50.84375 -28.46875 C 46.382812 -28.46875 41.960938 -28.347656 37.578125 -28.109375 C 33.191406 -27.867188 28.75 -27.46875 24.25 -26.90625 C 23.039062 -26.820312 21.75 -27.503906 20.375 -28.953125 C 19.007812 -30.398438 18.328125 -32.007812 18.328125 -33.78125 Z M 18.328125 -33.78125 "/></g></g><g style="fill:#000000;fill-opacity:0.4;"><g transform="translate(704.678419, 138.7267)"><path style="stroke:none" d="M 10.984375 -60.078125 C 11.054688 -62.085938 11.734375 -63.570312 13.015625 -64.53125 C 14.304688 -65.5 16.117188 -65.984375 18.453125 -65.984375 C 20.460938 -65.984375 22.03125 -65.539062 23.15625 -64.65625 C 24.28125 -63.769531 24.84375 -62.523438 24.84375 -60.921875 C 24.84375 -60.429688 24.84375 -59.804688 24.84375 -59.046875 C 24.84375 -58.285156 24.820312 -57.460938 24.78125 -56.578125 C 24.75 -55.691406 24.648438 -54.6875 24.484375 -53.5625 C 26.734375 -57.582031 29.363281 -60.632812 32.375 -62.71875 C 35.394531 -64.8125 38.796875 -65.859375 42.578125 -65.859375 C 44.191406 -65.859375 46.0625 -65.613281 48.1875 -65.125 C 50.320312 -64.644531 52.515625 -63.722656 54.765625 -62.359375 C 55.734375 -61.796875 56.5 -61.03125 57.0625 -60.0625 C 57.625 -59.101562 57.78125 -57.78125 57.53125 -56.09375 C 57.375 -54 56.734375 -52.410156 55.609375 -51.328125 C 54.484375 -50.242188 53.113281 -49.703125 51.5 -49.703125 C 50.695312 -49.703125 49.953125 -49.859375 49.265625 -50.171875 C 48.585938 -50.492188 47.925781 -50.816406 47.28125 -51.140625 C 46.394531 -51.628906 45.488281 -52.070312 44.5625 -52.46875 C 43.644531 -52.875 42.503906 -53.078125 41.140625 -53.078125 C 36.628906 -53.078125 33.023438 -50.90625 30.328125 -46.5625 C 27.640625 -42.21875 25.453125 -36.671875 23.765625 -29.921875 C 23.679688 -27.179688 23.617188 -24.625 23.578125 -22.25 C 23.535156 -19.882812 23.492188 -17.632812 23.453125 -15.5 C 23.421875 -13.363281 23.382812 -11.351562 23.34375 -9.46875 C 23.300781 -7.582031 23.28125 -5.753906 23.28125 -3.984375 C 23.28125 -2.691406 22.914062 -1.644531 22.1875 -0.84375 C 21.46875 -0.0390625 20.582031 0.554688 19.53125 0.953125 C 18.488281 1.359375 17.488281 1.5625 16.53125 1.5625 C 14.269531 1.5625 12.578125 1.039062 11.453125 0 C 10.328125 -1.039062 9.582031 -2.425781 9.21875 -4.15625 C 8.863281 -5.882812 8.6875 -7.753906 8.6875 -9.765625 C 8.6875 -11.378906 8.742188 -13.390625 8.859375 -15.796875 C 8.984375 -18.210938 9.144531 -20.625 9.34375 -23.03125 C 9.550781 -25.445312 9.773438 -27.460938 10.015625 -29.078125 Z M 10.984375 -60.078125 "/></g></g><g style="fill:#000000;fill-opacity:0.4;"><g transform="translate(763.182045, 138.7267)"><path style="stroke:none" d="M 15.203125 -77.5625 C 15.359375 -79.25 15.976562 -80.535156 17.0625 -81.421875 C 18.15625 -82.304688 19.707031 -82.75 21.71875 -82.75 C 23 -82.75 24.242188 -82.566406 25.453125 -82.203125 C 26.660156 -81.835938 27.625 -81.234375 28.34375 -80.390625 C 29.070312 -79.546875 29.351562 -78.441406 29.1875 -77.078125 C 28.539062 -72.253906 28 -67.507812 27.5625 -62.84375 C 27.125 -58.175781 26.78125 -53.507812 26.53125 -48.84375 C 26.289062 -44.1875 26.171875 -39.363281 26.171875 -34.375 C 26.335938 -28.582031 26.640625 -24.019531 27.078125 -20.6875 C 27.523438 -17.351562 28.066406 -15 28.703125 -13.625 C 29.347656 -12.257812 29.910156 -11.578125 30.390625 -11.578125 C 31.117188 -11.578125 32.023438 -12.019531 33.109375 -12.90625 C 34.191406 -13.789062 35.234375 -14.773438 36.234375 -15.859375 C 37.242188 -16.941406 37.992188 -17.765625 38.484375 -18.328125 C 38.960938 -18.890625 39.503906 -19.3125 40.109375 -19.59375 C 40.710938 -19.882812 41.375 -20.03125 42.09375 -20.03125 C 43.0625 -20.03125 44.023438 -19.742188 44.984375 -19.171875 C 45.953125 -18.609375 46.757812 -17.863281 47.40625 -16.9375 C 48.050781 -16.019531 48.375 -15 48.375 -13.875 C 48.375 -13.3125 48.234375 -12.609375 47.953125 -11.765625 C 47.671875 -10.921875 46.96875 -9.894531 45.84375 -8.6875 C 44.070312 -6.59375 42.117188 -4.820312 39.984375 -3.375 C 37.859375 -1.925781 35.75 -0.835938 33.65625 -0.109375 C 31.5625 0.609375 29.59375 0.96875 27.75 0.96875 C 23.96875 0.96875 20.929688 -0.234375 18.640625 -2.640625 C 16.347656 -5.054688 14.71875 -8.679688 13.75 -13.515625 C 13.1875 -17.046875 12.765625 -20.5625 12.484375 -24.0625 C 12.203125 -27.5625 12.0625 -31.117188 12.0625 -34.734375 C 12.0625 -39.640625 12.179688 -44.363281 12.421875 -48.90625 C 12.660156 -53.457031 13.019531 -58.0625 13.5 -62.71875 C 13.988281 -67.382812 14.554688 -72.332031 15.203125 -77.5625 Z M 9.046875 -52.59375 C 7.515625 -52.507812 6.285156 -53.007812 5.359375 -54.09375 C 4.441406 -55.1875 3.984375 -56.613281 3.984375 -58.375 C 3.984375 -59.988281 4.441406 -61.316406 5.359375 -62.359375 C 6.285156 -63.410156 7.515625 -63.972656 9.046875 -64.046875 C 11.140625 -64.210938 13.472656 -64.351562 16.046875 -64.46875 C 18.617188 -64.59375 21.3125 -64.675781 24.125 -64.71875 C 26.9375 -64.757812 29.929688 -64.796875 33.109375 -64.828125 C 36.285156 -64.867188 39.523438 -64.890625 42.828125 -64.890625 C 44.191406 -64.890625 45.394531 -64.367188 46.4375 -63.328125 C 47.488281 -62.285156 48.015625 -60.835938 48.015625 -58.984375 C 48.015625 -57.210938 47.46875 -55.84375 46.375 -54.875 C 45.289062 -53.914062 44.109375 -53.4375 42.828125 -53.4375 C 39.441406 -53.4375 36.398438 -53.414062 33.703125 -53.375 C 31.015625 -53.332031 28.421875 -53.289062 25.921875 -53.25 C 23.429688 -53.21875 20.835938 -53.140625 18.140625 -53.015625 C 15.453125 -52.890625 12.421875 -52.75 9.046875 -52.59375 Z M 9.046875 -52.59375 "/></g></g><g style="fill:#000000;fill-opacity:1;"><g transform="translate(172.09057, 133.39508)"><path style="stroke:none" d="M 13.625 -88.296875 C 13.789062 -89.660156 14.253906 -90.785156 15.015625 -91.671875 C 15.773438 -92.554688 17.285156 -93.160156 19.546875 -93.484375 C 20.671875 -93.640625 22.054688 -93.78125 23.703125 -93.90625 C 25.347656 -94.03125 27.054688 -94.109375 28.828125 -94.140625 C 30.597656 -94.179688 32.207031 -94.203125 33.65625 -94.203125 C 41.050781 -94.203125 47.625 -93.078125 53.375 -90.828125 C 59.125 -88.578125 63.644531 -85.300781 66.9375 -81 C 70.238281 -76.695312 71.890625 -71.453125 71.890625 -65.265625 C 71.890625 -60.515625 70.785156 -56.367188 68.578125 -52.828125 C 66.367188 -49.296875 63.394531 -46.34375 59.65625 -43.96875 C 55.914062 -41.59375 51.8125 -39.820312 47.34375 -38.65625 C 42.882812 -37.488281 38.363281 -36.90625 33.78125 -36.90625 C 32.164062 -36.90625 30.632812 -36.960938 29.1875 -37.078125 C 27.738281 -37.203125 26.332031 -37.390625 24.96875 -37.640625 C 24.726562 -31.929688 24.503906 -26.257812 24.296875 -20.625 C 24.097656 -15 23.835938 -9.332031 23.515625 -3.625 C 23.441406 -1.6875 22.695312 -0.296875 21.28125 0.546875 C 19.875 1.390625 18.207031 1.8125 16.28125 1.8125 C 14.03125 1.8125 12.320312 1.328125 11.15625 0.359375 C 9.988281 -0.597656 9.445312 -2.046875 9.53125 -3.984375 C 10.414062 -17.972656 11 -32.039062 11.28125 -46.1875 C 11.5625 -60.34375 12.34375 -74.378906 13.625 -88.296875 Z M 25.578125 -49.328125 C 26.941406 -49.171875 28.304688 -48.988281 29.671875 -48.78125 C 31.035156 -48.582031 32.644531 -48.484375 34.5 -48.484375 C 37.070312 -48.484375 39.703125 -48.828125 42.390625 -49.515625 C 45.085938 -50.203125 47.582031 -51.269531 49.875 -52.71875 C 52.164062 -54.164062 54.015625 -55.992188 55.421875 -58.203125 C 56.828125 -60.410156 57.53125 -63.003906 57.53125 -65.984375 C 57.53125 -67.828125 57.128906 -69.734375 56.328125 -71.703125 C 55.523438 -73.679688 54.195312 -75.472656 52.34375 -77.078125 C 50.5 -78.679688 48.128906 -79.984375 45.234375 -80.984375 C 42.335938 -81.992188 38.757812 -82.5 34.5 -82.5 C 32.96875 -82.5 31.617188 -82.4375 30.453125 -82.3125 C 29.285156 -82.195312 28.222656 -82.0625 27.265625 -81.90625 C 27.023438 -78.445312 26.800781 -74.96875 26.59375 -71.46875 C 26.394531 -67.96875 26.210938 -64.40625 26.046875 -60.78125 C 25.890625 -57.164062 25.734375 -53.347656 25.578125 -49.328125 Z M 25.578125 -49.328125 "/></g></g><g style="fill:#000000;fill-opacity:1;"><g transform="translate(244.70729, 133.39508)"><path style="stroke:none" d="M 10.984375 -60.078125 C 11.054688 -62.085938 11.734375 -63.570312 13.015625 -64.53125 C 14.304688 -65.5 16.117188 -65.984375 18.453125 -65.984375 C 20.460938 -65.984375 22.03125 -65.539062 23.15625 -64.65625 C 24.28125 -63.769531 24.84375 -62.523438 24.84375 -60.921875 C 24.84375 -60.429688 24.84375 -59.804688 24.84375 -59.046875 C 24.84375 -58.285156 24.820312 -57.460938 24.78125 -56.578125 C 24.75 -55.691406 24.648438 -54.6875 24.484375 -53.5625 C 26.734375 -57.582031 29.363281 -60.632812 32.375 -62.71875 C 35.394531 -64.8125 38.796875 -65.859375 42.578125 -65.859375 C 44.191406 -65.859375 46.0625 -65.613281 48.1875 -65.125 C 50.320312 -64.644531 52.515625 -63.722656 54.765625 -62.359375 C 55.734375 -61.796875 56.5 -61.03125 57.0625 -60.0625 C 57.625 -59.101562 57.78125 -57.78125 57.53125 -56.09375 C 57.375 -54 56.734375 -52.410156 55.609375 -51.328125 C 54.484375 -50.242188 53.113281 -49.703125 51.5 -49.703125 C 50.695312 -49.703125 49.953125 -49.859375 49.265625 -50.171875 C 48.585938 -50.492188 47.925781 -50.816406 47.28125 -51.140625 C 46.394531 -51.628906 45.488281 -52.070312 44.5625 -52.46875 C 43.644531 -52.875 42.503906 -53.078125 41.140625 -53.078125 C 36.628906 -53.078125 33.023438 -50.90625 30.328125 -46.5625 C 27.640625 -42.21875 25.453125 -36.671875 23.765625 -29.921875 C 23.679688 -27.179688 23.617188 -24.625 23.578125 -22.25 C 23.535156 -19.882812 23.492188 -17.632812 23.453125 -15.5 C 23.421875 -13.363281 23.382812 -11.351562 23.34375 -9.46875 C 23.300781 -7.582031 23.28125 -5.753906 23.28125 -3.984375 C 23.28125 -2.691406 22.914062 -1.644531 22.1875 -0.84375 C 21.46875 -0.0390625 20.582031 0.554688 19.53125 0.953125 C 18.488281 1.359375 17.488281 1.5625 16.53125 1.5625 C 14.269531 1.5625 12.578125 1.039062 11.453125 0 C 10.328125 -1.039062 9.582031 -2.425781 9.21875 -4.15625 C 8.863281 -5.882812 8.6875 -7.753906 8.6875 -9.765625 C 8.6875 -11.378906 8.742188 -13.390625 8.859375 -15.796875 C 8.984375 -18.210938 9.144531 -20.625 9.34375 -23.03125 C 9.550781 -25.445312 9.773438 -27.460938 10.015625 -29.078125 Z M 10.984375 -60.078125 "/></g></g><g style="fill:#000000;fill-opacity:1;"><g transform="translate(301.401463, 133.39508)"><path style="stroke:none" d="M 35.828125 -66.109375 C 37.671875 -66.109375 39.640625 -65.925781 41.734375 -65.5625 C 43.828125 -65.195312 45.796875 -64.671875 47.640625 -63.984375 C 49.492188 -63.304688 50.984375 -62.441406 52.109375 -61.390625 C 55.804688 -58.421875 58.539062 -54.539062 60.3125 -49.75 C 62.082031 -44.96875 62.96875 -39.925781 62.96875 -34.625 C 62.96875 -30.195312 62.382812 -25.910156 61.21875 -21.765625 C 60.050781 -17.628906 58.34375 -13.867188 56.09375 -10.484375 C 53.84375 -7.109375 51.023438 -4.4375 47.640625 -2.46875 C 44.265625 -0.5 40.40625 0.484375 36.0625 0.484375 C 31.40625 0.484375 27.207031 -0.398438 23.46875 -2.171875 C 19.726562 -3.941406 16.507812 -6.351562 13.8125 -9.40625 C 11.113281 -12.46875 9.0625 -16.007812 7.65625 -20.03125 C 6.25 -24.050781 5.546875 -28.269531 5.546875 -32.6875 C 5.546875 -36.945312 6.164062 -41.066406 7.40625 -45.046875 C 8.65625 -49.035156 10.566406 -52.613281 13.140625 -55.78125 C 15.722656 -58.957031 18.898438 -61.472656 22.671875 -63.328125 C 26.453125 -65.179688 30.835938 -66.109375 35.828125 -66.109375 Z M 19.546875 -33.53125 C 19.546875 -29.832031 20.144531 -26.296875 21.34375 -22.921875 C 22.550781 -19.546875 24.359375 -16.8125 26.765625 -14.71875 C 29.179688 -12.625 32.117188 -11.578125 35.578125 -11.578125 C 37.910156 -11.578125 39.941406 -12.238281 41.671875 -13.5625 C 43.398438 -14.894531 44.804688 -16.6875 45.890625 -18.9375 C 46.984375 -21.1875 47.769531 -23.617188 48.25 -26.234375 C 48.726562 -28.847656 48.96875 -31.398438 48.96875 -33.890625 C 48.96875 -38.722656 48.265625 -42.722656 46.859375 -45.890625 C 45.453125 -49.066406 43.503906 -51.503906 41.015625 -53.203125 C 40.046875 -53.515625 39.117188 -53.710938 38.234375 -53.796875 C 37.347656 -53.878906 36.425781 -53.921875 35.46875 -53.921875 C 32.8125 -53.921875 30.476562 -53.375 28.46875 -52.28125 C 26.457031 -51.195312 24.785156 -49.671875 23.453125 -47.703125 C 22.128906 -45.734375 21.144531 -43.539062 20.5 -41.125 C 19.863281 -38.71875 19.546875 -36.1875 19.546875 -33.53125 Z M 19.546875 -33.53125 "/></g></g><g style="fill:#000000;fill-opacity:1;"><g transform="translate(369.675807, 133.39508)"><path style="stroke:none" d="M 12.546875 -62 C 12.785156 -63.363281 13.546875 -64.40625 14.828125 -65.125 C 16.117188 -65.851562 17.488281 -66.21875 18.9375 -66.21875 C 20.789062 -66.21875 22.28125 -65.734375 23.40625 -64.765625 C 24.53125 -63.804688 25.09375 -62.5625 25.09375 -61.03125 C 25.09375 -60.226562 24.988281 -59.300781 24.78125 -58.25 C 24.582031 -57.207031 24.363281 -55.765625 24.125 -53.921875 C 25.976562 -56.648438 27.925781 -58.921875 29.96875 -60.734375 C 32.019531 -62.546875 34.210938 -63.910156 36.546875 -64.828125 C 38.878906 -65.753906 41.289062 -66.21875 43.78125 -66.21875 C 46.039062 -66.21875 48.253906 -65.796875 50.421875 -64.953125 C 52.585938 -64.109375 54.554688 -62.757812 56.328125 -60.90625 C 58.097656 -59.0625 59.46875 -56.53125 60.4375 -53.3125 C 62.207031 -55.96875 64.21875 -58.300781 66.46875 -60.3125 C 68.71875 -62.320312 71.148438 -63.890625 73.765625 -65.015625 C 76.378906 -66.140625 79.09375 -66.703125 81.90625 -66.703125 C 86.082031 -66.703125 89.476562 -65.835938 92.09375 -64.109375 C 94.707031 -62.378906 96.773438 -60.023438 98.296875 -57.046875 C 99.828125 -54.078125 100.875 -50.679688 101.4375 -46.859375 C 102.007812 -43.046875 102.296875 -39.085938 102.296875 -34.984375 C 102.296875 -32.328125 102.234375 -29.929688 102.109375 -27.796875 C 101.984375 -25.671875 101.800781 -23.5 101.5625 -21.28125 C 101.320312 -19.070312 101.0625 -16.703125 100.78125 -14.171875 C 100.5 -11.640625 100.195312 -8.6875 99.875 -5.3125 C 99.550781 -3.375 98.726562 -1.898438 97.40625 -0.890625 C 96.082031 0.109375 94.613281 0.609375 93 0.609375 C 90.425781 0.609375 88.632812 0.0664062 87.625 -1.015625 C 86.625 -2.109375 86.125 -3.539062 86.125 -5.3125 C 86.125 -6.195312 86.242188 -7.539062 86.484375 -9.34375 C 86.722656 -11.15625 87.023438 -13.347656 87.390625 -15.921875 C 87.753906 -18.492188 88.054688 -21.347656 88.296875 -24.484375 C 88.535156 -27.617188 88.65625 -30.914062 88.65625 -34.375 C 88.65625 -41.375 87.929688 -46.378906 86.484375 -49.390625 C 85.035156 -52.410156 82.742188 -53.921875 79.609375 -53.921875 C 78.003906 -53.921875 76.296875 -53.375 74.484375 -52.28125 C 72.671875 -51.195312 70.941406 -49.75 69.296875 -47.9375 C 67.648438 -46.132812 66.242188 -44.085938 65.078125 -41.796875 C 63.910156 -39.503906 63.085938 -37.148438 62.609375 -34.734375 C 62.609375 -33.210938 62.566406 -31.890625 62.484375 -30.765625 C 62.398438 -29.640625 62.335938 -28.570312 62.296875 -27.5625 C 62.265625 -26.5625 62.207031 -25.492188 62.125 -24.359375 C 62.039062 -22.035156 61.914062 -19.742188 61.75 -17.484375 C 61.59375 -15.234375 61.429688 -13.019531 61.265625 -10.84375 C 61.109375 -8.675781 60.992188 -6.550781 60.921875 -4.46875 C 60.921875 -2.457031 60.316406 -0.988281 59.109375 -0.0625 C 57.898438 0.863281 56.171875 1.328125 53.921875 1.328125 C 51.828125 1.328125 50.175781 0.863281 48.96875 -0.0625 C 47.769531 -0.988281 47.171875 -2.535156 47.171875 -4.703125 C 47.242188 -8.078125 47.421875 -11.429688 47.703125 -14.765625 C 47.984375 -18.109375 48.242188 -21.507812 48.484375 -24.96875 C 48.734375 -28.425781 48.859375 -32.003906 48.859375 -35.703125 C 48.859375 -42.210938 48.253906 -46.851562 47.046875 -49.625 C 45.835938 -52.40625 44.023438 -53.796875 41.609375 -53.796875 C 39.679688 -53.796875 37.648438 -53.070312 35.515625 -51.625 C 33.390625 -50.175781 31.359375 -48.207031 29.421875 -45.71875 C 27.492188 -43.226562 25.769531 -40.375 24.25 -37.15625 C 24.082031 -33.132812 23.914062 -29.113281 23.75 -25.09375 C 23.59375 -21.070312 23.453125 -17.289062 23.328125 -13.75 C 23.210938 -10.207031 23.078125 -7.113281 22.921875 -4.46875 C 22.753906 -2.457031 22.085938 -0.988281 20.921875 -0.0625 C 19.753906 0.863281 18.164062 1.328125 16.15625 1.328125 C 13.988281 1.328125 12.238281 0.863281 10.90625 -0.0625 C 9.582031 -0.988281 8.960938 -2.535156 9.046875 -4.703125 C 9.285156 -9.929688 9.484375 -15.28125 9.640625 -20.75 C 9.804688 -26.21875 10.007812 -31.722656 10.25 -37.265625 C 10.414062 -41.453125 10.65625 -45.613281 10.96875 -49.75 C 11.289062 -53.894531 11.816406 -57.976562 12.546875 -62 Z M 12.546875 -62 "/></g></g><g style="fill:#000000;fill-opacity:1;"><g transform="translate(480.410516, 133.39508)"><path style="stroke:none" d="M 14.59375 34.25 C 12.257812 34.25 10.425781 33.785156 9.09375 32.859375 C 7.769531 31.941406 7.148438 30.394531 7.234375 28.21875 C 7.472656 23.5625 7.710938 19.222656 7.953125 15.203125 C 8.203125 11.179688 8.40625 7.21875 8.5625 3.3125 C 8.726562 -0.582031 8.910156 -4.640625 9.109375 -8.859375 C 9.304688 -13.085938 9.546875 -17.710938 9.828125 -22.734375 C 10.109375 -27.765625 10.390625 -33.414062 10.671875 -39.6875 C 10.953125 -45.957031 11.296875 -53.070312 11.703125 -61.03125 C 11.859375 -63.28125 12.738281 -64.847656 14.34375 -65.734375 C 15.957031 -66.617188 17.691406 -67.0625 19.546875 -67.0625 C 21.304688 -67.0625 22.671875 -66.519531 23.640625 -65.4375 C 24.609375 -64.351562 25.09375 -63.128906 25.09375 -61.765625 C 25.09375 -60.472656 25.070312 -59.203125 25.03125 -57.953125 C 24.988281 -56.710938 24.890625 -55.046875 24.734375 -52.953125 C 27.628906 -57.296875 30.863281 -60.550781 34.4375 -62.71875 C 38.019531 -64.894531 41.738281 -65.984375 45.59375 -65.984375 C 49.050781 -65.984375 52.144531 -65.140625 54.875 -63.453125 C 57.613281 -61.765625 59.96875 -59.507812 61.9375 -56.6875 C 63.90625 -53.875 65.410156 -50.695312 66.453125 -47.15625 C 67.503906 -43.625 68.03125 -39.925781 68.03125 -36.0625 C 68.03125 -31.082031 67.328125 -26.316406 65.921875 -21.765625 C 64.515625 -17.222656 62.523438 -13.203125 59.953125 -9.703125 C 57.378906 -6.210938 54.34375 -3.441406 50.84375 -1.390625 C 47.34375 0.660156 43.503906 1.6875 39.328125 1.6875 C 36.429688 1.6875 33.570312 1.179688 30.75 0.171875 C 27.9375 -0.828125 25.328125 -2.25 22.921875 -4.09375 C 22.679688 1.6875 22.4375 7.210938 22.1875 12.484375 C 21.945312 17.753906 21.664062 23.125 21.34375 28.59375 C 21.269531 30.4375 20.648438 31.835938 19.484375 32.796875 C 18.316406 33.765625 16.6875 34.25 14.59375 34.25 Z M 38.234375 -10.015625 C 40.328125 -10.015625 42.296875 -10.65625 44.140625 -11.9375 C 45.992188 -13.226562 47.644531 -15 49.09375 -17.25 C 50.539062 -19.5 51.664062 -22.148438 52.46875 -25.203125 C 53.269531 -28.265625 53.671875 -31.523438 53.671875 -34.984375 C 53.671875 -37.640625 53.429688 -40.09375 52.953125 -42.34375 C 52.472656 -44.59375 51.75 -46.539062 50.78125 -48.1875 C 49.8125 -49.832031 48.679688 -51.097656 47.390625 -51.984375 C 46.109375 -52.867188 44.625 -53.3125 42.9375 -53.3125 C 41.25 -53.3125 39.476562 -52.707031 37.625 -51.5 C 35.78125 -50.300781 33.992188 -48.675781 32.265625 -46.625 C 30.535156 -44.570312 28.96875 -42.257812 27.5625 -39.6875 C 26.15625 -37.113281 25.007812 -34.457031 24.125 -31.71875 C 24.039062 -29.070312 23.9375 -26.582031 23.8125 -24.25 C 23.695312 -21.914062 23.597656 -19.378906 23.515625 -16.640625 C 25.691406 -14.554688 28.101562 -12.929688 30.75 -11.765625 C 33.40625 -10.597656 35.898438 -10.015625 38.234375 -10.015625 Z M 38.234375 -10.015625 "/></g></g><g style="fill:#000000;fill-opacity:1;"><g transform="translate(553.992418, 133.39508)"><path style="stroke:none" d="M 15.203125 -77.5625 C 15.359375 -79.25 15.976562 -80.535156 17.0625 -81.421875 C 18.15625 -82.304688 19.707031 -82.75 21.71875 -82.75 C 23 -82.75 24.242188 -82.566406 25.453125 -82.203125 C 26.660156 -81.835938 27.625 -81.234375 28.34375 -80.390625 C 29.070312 -79.546875 29.351562 -78.441406 29.1875 -77.078125 C 28.539062 -72.253906 28 -67.507812 27.5625 -62.84375 C 27.125 -58.175781 26.78125 -53.507812 26.53125 -48.84375 C 26.289062 -44.1875 26.171875 -39.363281 26.171875 -34.375 C 26.335938 -28.582031 26.640625 -24.019531 27.078125 -20.6875 C 27.523438 -17.351562 28.066406 -15 28.703125 -13.625 C 29.347656 -12.257812 29.910156 -11.578125 30.390625 -11.578125 C 31.117188 -11.578125 32.023438 -12.019531 33.109375 -12.90625 C 34.191406 -13.789062 35.234375 -14.773438 36.234375 -15.859375 C 37.242188 -16.941406 37.992188 -17.765625 38.484375 -18.328125 C 38.960938 -18.890625 39.503906 -19.3125 40.109375 -19.59375 C 40.710938 -19.882812 41.375 -20.03125 42.09375 -20.03125 C 43.0625 -20.03125 44.023438 -19.742188 44.984375 -19.171875 C 45.953125 -18.609375 46.757812 -17.863281 47.40625 -16.9375 C 48.050781 -16.019531 48.375 -15 48.375 -13.875 C 48.375 -13.3125 48.234375 -12.609375 47.953125 -11.765625 C 47.671875 -10.921875 46.96875 -9.894531 45.84375 -8.6875 C 44.070312 -6.59375 42.117188 -4.820312 39.984375 -3.375 C 37.859375 -1.925781 35.75 -0.835938 33.65625 -0.109375 C 31.5625 0.609375 29.59375 0.96875 27.75 0.96875 C 23.96875 0.96875 20.929688 -0.234375 18.640625 -2.640625 C 16.347656 -5.054688 14.71875 -8.679688 13.75 -13.515625 C 13.1875 -17.046875 12.765625 -20.5625 12.484375 -24.0625 C 12.203125 -27.5625 12.0625 -31.117188 12.0625 -34.734375 C 12.0625 -39.640625 12.179688 -44.363281 12.421875 -48.90625 C 12.660156 -53.457031 13.019531 -58.0625 13.5 -62.71875 C 13.988281 -67.382812 14.554688 -72.332031 15.203125 -77.5625 Z M 9.046875 -52.59375 C 7.515625 -52.507812 6.285156 -53.007812 5.359375 -54.09375 C 4.441406 -55.1875 3.984375 -56.613281 3.984375 -58.375 C 3.984375 -59.988281 4.441406 -61.316406 5.359375 -62.359375 C 6.285156 -63.410156 7.515625 -63.972656 9.046875 -64.046875 C 11.140625 -64.210938 13.472656 -64.351562 16.046875 -64.46875 C 18.617188 -64.59375 21.3125 -64.675781 24.125 -64.71875 C 26.9375 -64.757812 29.929688 -64.796875 33.109375 -64.828125 C 36.285156 -64.867188 39.523438 -64.890625 42.828125 -64.890625 C 44.191406 -64.890625 45.394531 -64.367188 46.4375 -63.328125 C 47.488281 -62.285156 48.015625 -60.835938 48.015625 -58.984375 C 48.015625 -57.210938 47.46875 -55.84375 46.375 -54.875 C 45.289062 -53.914062 44.109375 -53.4375 42.828125 -53.4375 C 39.441406 -53.4375 36.398438 -53.414062 33.703125 -53.375 C 31.015625 -53.332031 28.421875 -53.289062 25.921875 -53.25 C 23.429688 -53.21875 20.835938 -53.140625 18.140625 -53.015625 C 15.453125 -52.890625 12.421875 -52.75 9.046875 -52.59375 Z M 9.046875 -52.59375 "/></g></g><g style="fill:#000000;fill-opacity:1;"><g transform="translate(606.102859, 133.39508)"><path style="stroke:none" d="M 16.28125 -3.140625 C 15.800781 -1.453125 14.9375 -0.207031 13.6875 0.59375 C 12.445312 1.40625 10.738281 1.8125 8.5625 1.8125 C 6.46875 1.8125 4.835938 1.285156 3.671875 0.234375 C 2.515625 -0.804688 1.9375 -2.050781 1.9375 -3.5 C 1.9375 -4.21875 2.078125 -5.039062 2.359375 -5.96875 C 2.640625 -6.894531 3.0625 -8.125 3.625 -9.65625 C 6.351562 -16.644531 9.203125 -23.535156 12.171875 -30.328125 C 15.148438 -37.128906 18.207031 -43.882812 21.34375 -50.59375 C 24.488281 -57.3125 27.6875 -63.96875 30.9375 -70.5625 C 34.195312 -77.15625 37.394531 -83.75 40.53125 -90.34375 C 41.332031 -92.03125 42.375 -93.253906 43.65625 -94.015625 C 44.945312 -94.785156 46.398438 -95.171875 48.015625 -95.171875 C 50.023438 -95.171875 51.789062 -94.707031 53.3125 -93.78125 C 54.84375 -92.863281 55.847656 -91.640625 56.328125 -90.109375 C 56.734375 -89.222656 57.578125 -87.070312 58.859375 -83.65625 C 60.148438 -80.238281 61.71875 -76.015625 63.5625 -70.984375 C 65.414062 -65.960938 67.425781 -60.535156 69.59375 -54.703125 C 71.769531 -48.867188 73.984375 -43.054688 76.234375 -37.265625 C 78.484375 -31.484375 80.59375 -26.140625 82.5625 -21.234375 C 84.53125 -16.328125 86.203125 -12.304688 87.578125 -9.171875 C 88.054688 -8.367188 88.476562 -7.441406 88.84375 -6.390625 C 89.207031 -5.347656 89.390625 -4.503906 89.390625 -3.859375 C 89.390625 -2.085938 88.722656 -0.617188 87.390625 0.546875 C 86.066406 1.710938 84.4375 2.296875 82.5 2.296875 C 81.21875 2.296875 79.929688 2.09375 78.640625 1.6875 C 77.359375 1.28125 76.394531 0.359375 75.75 -1.078125 C 73.09375 -7.109375 70.476562 -13.582031 67.90625 -20.5 C 65.332031 -27.414062 62.835938 -34.351562 60.421875 -41.3125 C 58.015625 -48.269531 55.722656 -54.785156 53.546875 -60.859375 C 51.378906 -66.929688 49.453125 -72.175781 47.765625 -76.59375 C 43.828125 -67.988281 39.988281 -59.523438 36.25 -51.203125 C 32.507812 -42.878906 28.96875 -34.71875 25.625 -26.71875 C 22.289062 -18.71875 19.175781 -10.859375 16.28125 -3.140625 Z M 18.328125 -33.78125 C 18.328125 -35.144531 18.75 -36.25 19.59375 -37.09375 C 20.445312 -37.9375 21.4375 -38.578125 22.5625 -39.015625 C 23.6875 -39.460938 24.691406 -39.765625 25.578125 -39.921875 C 27.335938 -40.328125 29.6875 -40.691406 32.625 -41.015625 C 35.5625 -41.335938 39 -41.535156 42.9375 -41.609375 C 46.882812 -41.691406 51.3125 -41.535156 56.21875 -41.140625 C 57.5 -41.054688 58.984375 -41.050781 60.671875 -41.125 C 62.359375 -41.207031 64.109375 -41.304688 65.921875 -41.421875 C 67.734375 -41.546875 69.378906 -41.6875 70.859375 -41.84375 C 72.347656 -42.007812 73.535156 -42.175781 74.421875 -42.34375 C 76.273438 -42.582031 77.785156 -42.117188 78.953125 -40.953125 C 80.117188 -39.785156 80.703125 -38.273438 80.703125 -36.421875 C 80.703125 -34.734375 80.15625 -33.367188 79.0625 -32.328125 C 77.976562 -31.285156 76.570312 -30.484375 74.84375 -29.921875 C 73.113281 -29.359375 71.320312 -28.972656 69.46875 -28.765625 C 67.625 -28.566406 65.9375 -28.46875 64.40625 -28.46875 C 59.820312 -28.46875 55.300781 -28.46875 50.84375 -28.46875 C 46.382812 -28.46875 41.960938 -28.347656 37.578125 -28.109375 C 33.191406 -27.867188 28.75 -27.46875 24.25 -26.90625 C 23.039062 -26.820312 21.75 -27.503906 20.375 -28.953125 C 19.007812 -30.398438 18.328125 -32.007812 18.328125 -33.78125 Z M 18.328125 -33.78125 "/></g></g><g style="fill:#000000;fill-opacity:1;"><g transform="translate(699.346798, 133.39508)"><path style="stroke:none" d="M 10.984375 -60.078125 C 11.054688 -62.085938 11.734375 -63.570312 13.015625 -64.53125 C 14.304688 -65.5 16.117188 -65.984375 18.453125 -65.984375 C 20.460938 -65.984375 22.03125 -65.539062 23.15625 -64.65625 C 24.28125 -63.769531 24.84375 -62.523438 24.84375 -60.921875 C 24.84375 -60.429688 24.84375 -59.804688 24.84375 -59.046875 C 24.84375 -58.285156 24.820312 -57.460938 24.78125 -56.578125 C 24.75 -55.691406 24.648438 -54.6875 24.484375 -53.5625 C 26.734375 -57.582031 29.363281 -60.632812 32.375 -62.71875 C 35.394531 -64.8125 38.796875 -65.859375 42.578125 -65.859375 C 44.191406 -65.859375 46.0625 -65.613281 48.1875 -65.125 C 50.320312 -64.644531 52.515625 -63.722656 54.765625 -62.359375 C 55.734375 -61.796875 56.5 -61.03125 57.0625 -60.0625 C 57.625 -59.101562 57.78125 -57.78125 57.53125 -56.09375 C 57.375 -54 56.734375 -52.410156 55.609375 -51.328125 C 54.484375 -50.242188 53.113281 -49.703125 51.5 -49.703125 C 50.695312 -49.703125 49.953125 -49.859375 49.265625 -50.171875 C 48.585938 -50.492188 47.925781 -50.816406 47.28125 -51.140625 C 46.394531 -51.628906 45.488281 -52.070312 44.5625 -52.46875 C 43.644531 -52.875 42.503906 -53.078125 41.140625 -53.078125 C 36.628906 -53.078125 33.023438 -50.90625 30.328125 -46.5625 C 27.640625 -42.21875 25.453125 -36.671875 23.765625 -29.921875 C 23.679688 -27.179688 23.617188 -24.625 23.578125 -22.25 C 23.535156 -19.882812 23.492188 -17.632812 23.453125 -15.5 C 23.421875 -13.363281 23.382812 -11.351562 23.34375 -9.46875 C 23.300781 -7.582031 23.28125 -5.753906 23.28125 -3.984375 C 23.28125 -2.691406 22.914062 -1.644531 22.1875 -0.84375 C 21.46875 -0.0390625 20.582031 0.554688 19.53125 0.953125 C 18.488281 1.359375 17.488281 1.5625 16.53125 1.5625 C 14.269531 1.5625 12.578125 1.039062 11.453125 0 C 10.328125 -1.039062 9.582031 -2.425781 9.21875 -4.15625 C 8.863281 -5.882812 8.6875 -7.753906 8.6875 -9.765625 C 8.6875 -11.378906 8.742188 -13.390625 8.859375 -15.796875 C 8.984375 -18.210938 9.144531 -20.625 9.34375 -23.03125 C 9.550781 -25.445312 9.773438 -27.460938 10.015625 -29.078125 Z M 10.984375 -60.078125 "/></g></g><g style="fill:#000000;fill-opacity:1;"><g transform="translate(757.850423, 133.39508)"><path style="stroke:none" d="M 15.203125 -77.5625 C 15.359375 -79.25 15.976562 -80.535156 17.0625 -81.421875 C 18.15625 -82.304688 19.707031 -82.75 21.71875 -82.75 C 23 -82.75 24.242188 -82.566406 25.453125 -82.203125 C 26.660156 -81.835938 27.625 -81.234375 28.34375 -80.390625 C 29.070312 -79.546875 29.351562 -78.441406 29.1875 -77.078125 C 28.539062 -72.253906 28 -67.507812 27.5625 -62.84375 C 27.125 -58.175781 26.78125 -53.507812 26.53125 -48.84375 C 26.289062 -44.1875 26.171875 -39.363281 26.171875 -34.375 C 26.335938 -28.582031 26.640625 -24.019531 27.078125 -20.6875 C 27.523438 -17.351562 28.066406 -15 28.703125 -13.625 C 29.347656 -12.257812 29.910156 -11.578125 30.390625 -11.578125 C 31.117188 -11.578125 32.023438 -12.019531 33.109375 -12.90625 C 34.191406 -13.789062 35.234375 -14.773438 36.234375 -15.859375 C 37.242188 -16.941406 37.992188 -17.765625 38.484375 -18.328125 C 38.960938 -18.890625 39.503906 -19.3125 40.109375 -19.59375 C 40.710938 -19.882812 41.375 -20.03125 42.09375 -20.03125 C 43.0625 -20.03125 44.023438 -19.742188 44.984375 -19.171875 C 45.953125 -18.609375 46.757812 -17.863281 47.40625 -16.9375 C 48.050781 -16.019531 48.375 -15 48.375 -13.875 C 48.375 -13.3125 48.234375 -12.609375 47.953125 -11.765625 C 47.671875 -10.921875 46.96875 -9.894531 45.84375 -8.6875 C 44.070312 -6.59375 42.117188 -4.820312 39.984375 -3.375 C 37.859375 -1.925781 35.75 -0.835938 33.65625 -0.109375 C 31.5625 0.609375 29.59375 0.96875 27.75 0.96875 C 23.96875 0.96875 20.929688 -0.234375 18.640625 -2.640625 C 16.347656 -5.054688 14.71875 -8.679688 13.75 -13.515625 C 13.1875 -17.046875 12.765625 -20.5625 12.484375 -24.0625 C 12.203125 -27.5625 12.0625 -31.117188 12.0625 -34.734375 C 12.0625 -39.640625 12.179688 -44.363281 12.421875 -48.90625 C 12.660156 -53.457031 13.019531 -58.0625 13.5 -62.71875 C 13.988281 -67.382812 14.554688 -72.332031 15.203125 -77.5625 Z M 9.046875 -52.59375 C 7.515625 -52.507812 6.285156 -53.007812 5.359375 -54.09375 C 4.441406 -55.1875 3.984375 -56.613281 3.984375 -58.375 C 3.984375 -59.988281 4.441406 -61.316406 5.359375 -62.359375 C 6.285156 -63.410156 7.515625 -63.972656 9.046875 -64.046875 C 11.140625 -64.210938 13.472656 -64.351562 16.046875 -64.46875 C 18.617188 -64.59375 21.3125 -64.675781 24.125 -64.71875 C 26.9375 -64.757812 29.929688 -64.796875 33.109375 -64.828125 C 36.285156 -64.867188 39.523438 -64.890625 42.828125 -64.890625 C 44.191406 -64.890625 45.394531 -64.367188 46.4375 -63.328125 C 47.488281 -62.285156 48.015625 -60.835938 48.015625 -58.984375 C 48.015625 -57.210938 47.46875 -55.84375 46.375 -54.875 C 45.289062 -53.914062 44.109375 -53.4375 42.828125 -53.4375 C 39.441406 -53.4375 36.398438 -53.414062 33.703125 -53.375 C 31.015625 -53.332031 28.421875 -53.289062 25.921875 -53.25 C 23.429688 -53.21875 20.835938 -53.140625 18.140625 -53.015625 C 15.453125 -52.890625 12.421875 -52.75 9.046875 -52.59375 Z M 9.046875 -52.59375 "/></g></g></g></svg>